<svg width="513" height="316" viewBox="0 0 513 316" fill="none" xmlns="http://www.w3.org/2000/svg">
<path d="M393.335 274.579C358.553 274.24 250.593 275.186 183.584 292.037C59.3263 323.282 -33.5337 254.768 37.8537 186.541C57.8035 167.479 16.6294 44.1194 146.959 24.1219C261.363 6.5734 371.065 64.1311 424.417 89.1793C477.769 114.246 499.743 154.628 509.997 172.85C519.01 188.875 514.909 275.763 393.335 274.579Z" fill="#105691"/>
<path d="M369.055 258.368C337.772 257.957 240.845 256.215 182.018 251.283C72.9362 242.142 -16.1382 257.045 42.3934 274.198C58.7485 278.991 11.6072 307.605 127.066 314.173C228.424 319.94 331.729 307.862 381.73 302.683C431.73 297.503 454.797 288.257 465.51 284.084C474.929 280.423 478.394 259.8 369.055 258.368Z" fill="#022F54"/>
<path d="M223.954 267.361C222.207 267.361 220.789 269.653 220.789 272.484C220.789 273.033 220.856 273.548 220.956 274.04H225.424C225.983 274.04 226.446 273.138 226.446 272.03V269.347C225.859 268.144 224.966 267.361 223.954 267.361Z" fill="#387BFF"/>
<path d="M192.313 182.975C193.478 182.259 197.464 186.699 199.154 190.623C202.472 198.323 203.326 202.581 204.615 211.069C206.659 224.536 210.11 245.922 211.251 255.026C212.277 263.232 215.581 272.933 210.645 271.562C210.721 260.301 205.541 243.321 202.539 234.403C192.289 203.946 188.728 185.171 192.313 182.975Z" fill="#E9D6B8"/>
<path d="M215.754 190.203C215.32 188.04 214.871 185.916 214.417 183.825C212.89 180.774 211.558 179.17 210.541 179.409C206.693 180.311 203.208 197.717 215.3 239.053C215.907 241.13 222.824 272.45 223.955 272.45C225.55 272.455 222.227 222.235 215.754 190.203Z" fill="#E9D6B8"/>
<path d="M202.095 270.026C202.095 270.026 203.212 269.548 206.301 268.961C208.105 268.622 209.475 268.632 210.125 267.954C211.194 266.837 210.602 264.125 211.122 264.249C213.676 264.836 214.56 270.808 213.07 271.553C211.581 272.298 203.16 271.305 202.468 271.252C201.775 271.195 201.885 269.863 202.095 270.026Z" fill="#E9D6B8"/>
<path d="M203.85 269.482C203.372 271.491 209.545 270.685 211.139 270.155C212.667 269.658 213.641 269.501 213.641 269.501C213.703 269.501 213.765 269.491 213.832 269.486C213.836 269.534 213.856 269.582 213.856 269.634C213.856 270.737 214.343 272.207 212.576 272.207H201.515C192.464 272.207 203.859 269.434 203.85 269.482Z" fill="#387BFF"/>
<path d="M187.148 31.3066L189.521 14.9039C192.528 11.7341 196.386 10.0441 200.305 10.6122C207.871 11.7102 212.817 20.7756 211.356 30.8675C209.896 40.9593 202.577 48.2536 195.016 47.1604C189.721 46.3919 185.716 41.7183 184.279 35.5315C185.797 34.5958 186.886 33.1064 187.148 31.3066Z" fill="#1C1C1C"/>
<path d="M217.19 40.7729C217.477 43.3937 214.718 45.8475 211.018 46.2532L202.592 47.1841C198.897 47.5899 195.665 45.795 195.379 43.1741L192.744 19.2669C192.453 16.6461 195.217 14.1924 198.911 13.7818L207.342 12.8557C211.037 12.4452 214.264 14.2449 214.555 16.8657L217.19 40.7729Z" fill="#1C1C1C"/>
<path d="M195.216 51.037C190.218 53.1995 187.717 52.5264 191.536 54.1352C193.369 56.3836 216.837 53.252 218.111 50.34C218.321 49.8483 208.798 48.4496 208.745 48.0868C208.158 43.862 207.934 40.2959 209.113 35.5746C209.065 35.2071 208.779 34.9111 208.487 34.9206C206.707 34.9731 204.917 34.9875 203.131 35.0352C202.835 35.0495 199.341 35.8181 200.119 37.4985C200.501 42.1004 200.501 48.7456 195.216 51.037Z" fill="#E9D6B8"/>
<path d="M193.626 37.1881C193.545 37.021 193.468 36.8539 193.392 36.682C193.373 36.6295 193.344 36.5818 193.32 36.5245C193.225 36.3144 193.139 36.0996 193.048 35.8705C193.024 35.8084 193.005 35.7511 192.981 35.6939C192.919 35.5268 192.857 35.3549 192.8 35.1831C192.766 35.0924 192.733 34.9921 192.704 34.9014C192.657 34.7534 192.614 34.6102 192.566 34.4574C192.533 34.3572 192.504 34.2522 192.475 34.1519C192.418 33.9562 192.37 33.7605 192.313 33.56C192.28 33.412 192.241 33.264 192.208 33.1064C192.175 32.9728 192.141 32.8296 192.108 32.6959C192.079 32.5575 192.05 32.419 192.022 32.271C191.998 32.1517 191.969 32.0323 191.95 31.9035C191.931 31.8032 191.912 31.7077 191.888 31.6075C191.888 31.6027 191.888 31.6027 191.888 31.6027C191.597 29.9032 192.175 21.888 193.526 18.069C193.693 17.6059 194.184 17.2431 194.872 17.3147C198.996 17.7778 211.561 17.1954 208.315 28.6429V28.6525C208.305 28.6811 208.124 29.6645 208.028 30.1181C208.019 30.161 208.009 30.1992 208 30.2326C207.899 30.6861 207.79 31.1349 207.67 31.5693C207.661 31.6027 207.656 31.6266 207.646 31.6552C207.522 32.0992 207.393 32.5336 207.25 32.9537C207.245 32.968 207.245 32.9871 207.236 32.9967C205.436 38.3958 202.29 41.9571 198.953 41.7232C197.01 41.5895 195.301 40.1812 194.017 37.9232C194.012 37.9232 194.012 37.9232 194.012 37.9232C194.003 37.9041 193.993 37.8898 193.984 37.8707C193.888 37.6988 193.788 37.5222 193.697 37.3408C193.674 37.2978 193.65 37.2406 193.626 37.1881Z" fill="#E9D6B8"/>
<path d="M269.295 46.9653C269.295 46.9653 268.46 46.4736 268.804 45.8005C269.381 44.6882 271.329 43.1081 272.05 42.5782C272.852 41.9863 277.096 39.8237 277.096 39.8237C277.096 39.8237 276.404 41.4564 274.704 42.3252C272.212 43.6094 269.295 46.9653 269.295 46.9653Z" fill="#E9D6B8"/>
<path d="M269.784 46.5303C270.677 44.9693 272.596 44.1769 275.088 43.7806C277.446 43.4083 278.162 42.043 278.162 42.043C278.162 42.043 276.615 42.1193 273.011 43.0837C272.004 43.3558 270.915 43.709 270.08 44.3248C267.554 46.1723 267.492 50.5451 269.784 46.5303Z" fill="#E9D6B8"/>
<path d="M271.432 45.4561L270.602 45.0933L267.776 46.3774C267.776 46.3774 264.057 50.5497 263.217 52.6263C262.381 54.7029 253.082 67.0719 253.01 68.1316C252.881 70.0077 257.818 70.2273 257.818 70.2273C257.818 70.2273 262.696 59.1712 264.687 56.2544C266.678 53.3376 270.95 50.1583 271.776 49.046C273.18 47.1412 274.001 46.2581 274.001 46.2581C274.001 46.2581 272.879 45.6518 270.501 48.5065C269.871 49.256 269.365 48.1533 269.365 48.1533L271.432 45.4561Z" fill="#E9D6B8"/>
<path d="M220.248 83.0214L188.932 82.7589L185.104 46.9458L222.263 50.4736L220.248 83.0214Z" fill="#CCE8FF"/>
<path d="M187.142 189.72C202.542 192.135 205.326 190.083 223.022 187.557C224.698 187.586 231.868 170.357 226.822 124.93C225.781 115.568 218.706 108.05 220.325 82.634C209.799 82.4287 199.277 82.2282 188.746 82.0229C192.933 105.123 167.913 108.713 187.142 189.72Z" fill="#CCE8FF"/>
<path d="M186.086 92.3926L190.531 60.9953L189.452 48.3351C188.712 47.5952 187.781 47.1083 186.74 46.9794L186.034 46.8935C183.294 46.5593 180.826 48.8698 180.53 52.0492L177.035 95.042L186.086 92.3926Z" fill="#387BFF"/>
<path d="M237.969 95.0511L221.963 68.8381L217.633 52.822C218.191 52.0295 218.984 51.3803 219.967 51.0127L220.631 50.7597C223.209 49.7906 226.082 51.0987 227.056 53.6765L245.087 84.1954L237.969 95.0511Z" fill="#387BFF"/>
<path d="M268.092 47.4374C268.092 47.4374 269.868 45.1985 271.247 44.7927C272.207 44.5158 276.933 43.9478 276.933 43.9478C276.933 43.9478 275.72 45.2367 273.825 45.4706C271.047 45.8143 268.092 47.4374 268.092 47.4374Z" fill="#E9D6B8"/>
<path d="M269.374 48.1585C269.374 48.1585 269.665 48.9176 270.019 48.9987C269.804 49.1563 269.536 49.2565 269.355 49.352C268.935 49.5716 266.424 51.5814 266.424 51.5814C266.424 51.5814 267.956 49.7816 268.29 49.161C268.5 48.7696 269.169 48.0535 269.727 47.4425C269.799 47.3661 269.961 47.2993 270.114 47.1895L269.374 48.1585Z" fill="#E9D6B8"/>
<path d="M270.509 48.5119C272.104 46.5928 273.135 46.2396 273.641 46.2109C273.259 46.6597 272.662 47.3996 271.87 48.4689C271.588 48.8556 270.882 49.4953 269.998 50.283C269.831 50.4358 269.187 49.8533 267.397 50.6553C267.077 50.7986 268.456 49.0991 269.449 48.2971C269.621 48.574 270.022 49.0895 270.509 48.5119Z" fill="#E9D6B8"/>
<path d="M201.379 33.9416C202.892 33.0155 203.976 31.5165 204.238 29.712L206.616 13.314C206.759 13.1612 206.912 13.0324 207.06 12.8891L207.346 12.8557C211.041 12.4452 214.268 14.2449 214.559 16.8657L217.195 40.7729C217.419 42.797 215.815 44.7065 213.375 45.6661C212.955 45.6565 212.535 45.6326 212.11 45.5706C206.816 44.802 202.806 40.1285 201.379 33.9416Z" fill="#1C1C1C"/>
<path d="M186.742 46.9746L196.347 47.1656C196.347 47.1656 201.579 77.336 201.579 86.1866C201.579 95.0372 195.545 119.174 195.946 130.435C196.347 141.701 196.084 184.417 196.084 184.417H178.984C178.984 184.417 176.235 127.618 182.67 105.893C187.801 88.564 186.742 46.9746 186.742 46.9746Z" fill="#387BFF"/>
<path d="M196.346 47.1656L191.52 46.7646L191.534 54.1402L194.336 57.6298L193.128 61.2484L197.153 77.3409V109.12C197.153 109.12 202.38 80.9642 200.771 75.3311C199.162 69.6932 196.346 47.1656 196.346 47.1656Z" fill="#0063CB"/>
<path d="M212.435 49.1753L222.26 50.4738C222.26 50.4738 220.88 79.3457 220.479 87.7953C220.078 96.245 224.904 111.531 227.721 121.589C232.662 139.228 232.872 182.35 232.872 182.35C232.872 182.35 222.508 184.422 210.072 184.422C210.072 184.422 207.208 157.393 207.609 116.357C208.015 75.3262 212.435 49.1753 212.435 49.1753Z" fill="#387BFF"/>
<path d="M210.024 47.9673L206 75.3259L208.015 118.772L211.232 72.5094L215.252 62.451L214.044 58.8325L216.058 56.8179L214.45 47.9673H210.024Z" fill="#0063CB"/>
<path d="M211.479 59.6918L178.721 56.417L189.906 99.0614L220.081 102.279L211.479 59.6918Z" fill="#163F59"/>
<path d="M193.244 78.2233C196.939 72.509 195.918 68.3892 196.572 65.6109C197.221 62.8325 197.459 59.7582 197.474 59.7916C198.877 62.4888 197.751 64.3745 197.87 65.7636C197.999 67.1433 197.784 66.6707 199.245 64.7325C200.076 63.6202 199.527 60.4027 199.445 58.2831C199.374 56.4452 199.813 55.605 199.813 55.605C199.813 55.605 200.739 58.2783 201.03 61.133C201.379 64.575 201.092 68.3654 200.897 69.1864C200.548 70.6854 198.199 74.5761 196.104 77.0919C193.745 79.918 190.571 82.3383 193.244 78.2233Z" fill="#E9D6B8"/>
<path d="M180.655 92.6215C188.699 82.9688 199.373 71.9604 199.373 71.9604L184.727 97.0516C184.727 97.0516 176.636 97.4478 180.655 92.6215Z" fill="#E9D6B8"/>
<path d="M179.071 90.0001C179.071 90.0001 173.882 96.9746 178.56 99.5572C181.214 101.023 183.348 100.101 184.876 97.9676C187.711 94.0005 190.709 89.3461 190.709 89.3461L185.654 82.7344L179.071 90.0001Z" fill="#387BFF"/>
<path d="M201.021 66.8088C201.021 66.8088 202.534 61.6961 202.444 60.5933C202.382 59.8295 201.47 56.2778 201.47 56.2778C201.47 56.2778 200.763 58.111 201.045 59.5527C201.331 61.0087 201.021 66.8088 201.021 66.8088Z" fill="#E2C59C"/>
<path d="M259.608 67.9124C259.608 67.9124 253.65 64.1888 251.779 66.4421C249.908 68.7001 236.025 87.485 237.033 92.6168C238.307 99.1187 244.776 96.0922 246.327 95.5193C247.884 94.9417 259.608 67.9124 259.608 67.9124Z" fill="#387BFF"/>
<path d="M223.967 265.877C222.707 265.877 221.686 268.68 221.686 272.136C221.686 272.804 221.733 273.434 221.805 274.041H225.022C225.428 274.041 225.758 272.938 225.758 271.587V268.307C225.342 266.837 224.698 265.877 223.967 265.877Z" fill="#E9D6B8"/>
<path d="M223.954 270.646C222.207 270.646 220.789 271.811 220.789 273.248C220.789 273.525 220.856 273.788 220.956 274.041H225.424C225.983 274.041 226.446 273.582 226.446 273.019V271.659C225.859 271.047 224.966 270.646 223.954 270.646Z" fill="#387BFF"/>
<path d="M304.32 123.689C304.32 123.689 290.586 172.354 279.578 189.773C268.569 207.198 264.727 184.536 264.727 184.536L278.394 103.616L310.369 103.415C310.374 103.41 309.567 105.072 304.32 123.689Z" fill="#281617"/>
<path d="M289.145 103.606C289.145 103.606 298.348 183.434 299.666 187.444C304.12 201.011 314.302 192.251 315.878 187.73C317.453 183.209 320.074 149.74 319.549 125.317C319.024 100.89 319.024 102.494 319.024 102.494L289.145 103.606Z" fill="#281617"/>
<path d="M317.19 260.34C317.662 260.912 317.314 262.426 317.314 262.426C317.314 262.426 309.036 263.347 306.368 262.722C305.675 262.559 304.506 261.963 303.408 261.332C303.222 261.227 302.892 260.593 302.716 260.483C302.381 260.282 302.21 260.616 301.923 260.44C301.188 259.972 300.668 259.609 300.658 259.566C299.928 255.766 300.892 254.239 300.892 254.239C300.892 254.239 307.943 251.895 309.265 253.527C312.378 257.37 316.154 259.084 317.19 260.34Z" fill="#161711"/>
<path d="M265.715 256.935L264.536 263.103H258.244C258.244 263.103 257.896 262.229 257.361 262.229C256.913 262.229 256.335 263.103 255.724 263.103C254.402 263.103 252.931 263.103 252.344 263.103C251.165 263.103 239.722 263.103 239.722 263.103C239.722 263.103 239.436 261.805 239.784 261.356C239.961 261.127 241.011 260.726 241.713 260.53C244.964 259.618 254.263 256.768 255.881 253.66C257.848 249.884 265.715 256.935 265.715 256.935Z" fill="#161711"/>
<path d="M293.509 40.9401C294.23 43.919 296.55 46.2629 298.632 46.1054C300.594 45.838 302.551 45.5707 304.513 45.3034C306.561 44.8976 308.17 42.0142 308.065 38.9542C307.869 33.9178 307.668 28.8767 307.473 23.8356C307.391 20.809 305.162 15.0136 301.792 13.6721C298.713 12.4882 295.433 12.937 292.788 14.899C289.9 17.095 289.304 23.277 290.034 26.2129C291.194 31.1252 292.354 36.0374 293.509 40.9401Z" fill="#E2C59C"/>
<path d="M335.452 92.0528L315.006 112.986C315.006 112.986 339.658 107.329 340.756 97.1226C341.854 86.9162 335.452 92.0528 335.452 92.0528Z" fill="#E9D6B8"/>
<path d="M274.209 42.8111L290.593 36.6768L299.539 39.3453L310.605 38.0803L322.792 43.3649C322.792 43.3649 328.292 48.6542 323.184 65.6442C318.071 82.6342 320.038 109.258 320.038 109.258L276.658 111.191C276.658 111.191 275.073 86.4245 272.963 61.9731C271.302 42.8015 276.133 47.0073 274.209 42.8111Z" fill="#86C0F0"/>
<path d="M314.924 44.1285C314.924 44.1285 321.679 38.8344 328.29 48.6589C338.435 63.7345 345.195 80.376 346.374 83.775C347.553 87.1691 349.128 97.366 344.407 100.388C339.69 103.41 339.69 103.41 339.69 103.41L329.861 97.366L331.436 94.3442L332.224 92.4537C332.224 92.4537 326.72 80.3712 320.824 69.4201C314.924 58.4738 314.924 44.1285 314.924 44.1285Z" fill="#86C0F0"/>
<path d="M291.05 33.9268L296.463 38.2709L292.83 43.3789L288.4 36.6478L291.05 33.9268Z" fill="#74B2E8"/>
<path d="M308.32 35.4883L299.604 38.5578L304.182 44.5108L311.82 38.8299L308.32 35.4883Z" fill="#74B2E8"/>
<path d="M297.336 153.387C297.336 153.387 299.379 183.663 299.083 199.674C298.864 211.747 298.84 234.89 300.678 254.611C300.787 255.819 310.636 254.907 310.636 254.907C310.636 254.907 317.247 179.433 318.293 167.069C319.348 154.705 305.198 144.556 297.336 153.387Z" fill="#281617"/>
<path d="M268.13 186.899C268.13 186.899 270.913 187.505 279.663 188.264C283.65 188.613 268.001 258.114 268.001 258.114L255.604 252.768L264.941 182.746L268.13 186.899Z" fill="#281617"/>
<path d="M339.91 101.496L331.437 94.3491L328.119 98.8747L336.421 105.644L339.91 101.496Z" fill="#86C0F0"/>
<path d="M321.072 104.995C319.707 105.401 319.788 105.315 319.788 105.315C319.788 105.315 319.859 107.133 318.78 108.47C318.246 109.134 316.255 110.991 316.255 110.991L313.333 113.783L311.877 114.967C311.877 114.967 310.999 115.574 310.913 115.898C310.665 116.829 311.462 116.672 311.462 116.672L317.506 112.552L312.942 117.875C312.942 117.875 312.469 118.657 312.761 119.03C313.028 119.383 313.233 119.173 313.233 119.173L319.788 114.366L317.74 117.378C317.74 117.378 317.296 118.151 317.558 118.533C317.845 118.953 317.916 119.078 317.916 119.078L322.914 113.53C322.924 113.545 322.437 104.589 321.072 104.995Z" fill="#E9D6B8"/>
<path d="M318.161 113.707L315.163 117.641C315.163 117.641 314.394 118.443 314.27 119.039C314.122 119.722 314.709 119.87 314.709 119.87L319.798 114.38L318.161 113.707Z" fill="#E9D6B8"/>
<path d="M260.966 92.0528L281.412 112.986C281.412 112.986 256.76 107.329 255.662 97.1226C254.564 86.9162 260.966 92.0528 260.966 92.0528Z" fill="#E9D6B8"/>
<path d="M281.494 44.1285C281.494 44.1285 274.739 38.8344 268.127 48.6589C257.983 63.7345 251.223 80.376 250.044 83.775C248.865 87.1691 247.29 97.366 252.011 100.388C256.728 103.41 256.728 103.41 256.728 103.41L266.557 97.366L264.981 94.3442L264.194 92.4537C264.194 92.4537 269.698 80.3712 275.594 69.4201C281.494 58.4738 281.494 44.1285 281.494 44.1285Z" fill="#86C0F0"/>
<path d="M256.508 101.496L264.981 94.3491L268.294 98.8747L259.997 105.644L256.508 101.496Z" fill="#86C0F0"/>
<path d="M275.34 104.995C276.705 105.401 276.624 105.315 276.624 105.315C276.624 105.315 276.552 107.133 277.631 108.47C278.166 109.134 280.156 110.991 280.156 110.991L283.078 113.783L284.534 114.967C284.534 114.967 285.412 115.574 285.498 115.898C285.747 116.829 284.949 116.672 284.949 116.672L278.901 112.561L283.465 117.884C283.465 117.884 283.937 118.667 283.646 119.039C283.379 119.393 283.173 119.183 283.173 119.183L276.619 114.375L278.667 117.388C278.667 117.388 279.111 118.161 278.848 118.543C278.562 118.963 278.49 119.087 278.49 119.087L273.492 113.54C273.492 113.545 273.979 104.589 275.34 104.995Z" fill="#E9D6B8"/>
<path d="M278.257 113.707L281.255 117.641C281.255 117.641 282.023 118.443 282.147 119.039C282.295 119.722 281.708 119.87 281.708 119.87L276.619 114.38L278.257 113.707Z" fill="#E9D6B8"/>
<path d="M299.964 110.012H295.381C290.583 85.9139 290.808 61.0567 296.088 37.0444C297.472 37.6077 298.852 38.1663 300.236 38.7296C295.109 62.2024 295.028 86.5154 299.964 110.012Z" fill="#74B2E8"/>
<path d="M288.552 31.2776C288.948 32.9102 290.595 33.8984 292.218 33.507L305.485 30.2464C307.112 29.8454 308.105 28.1985 307.709 26.5706L302.878 6.91688C302.482 5.29378 300.835 4.29606 299.202 4.69229L285.941 7.95757C284.313 8.35379 283.32 9.99598 283.716 11.6286L288.552 31.2776Z" fill="#E9D6B8"/>
<path d="M284.693 15.6823C284.693 15.6823 282.445 14.2215 281.829 13.1331C281.518 12.5841 281.547 10.2115 282.803 8.98466C284.072 7.76257 285.686 9.05627 285.686 9.05627C285.686 9.05627 283.657 10.9419 283.652 11.467C283.652 11.9874 284.693 15.6823 284.693 15.6823Z" fill="#163F59"/>
<path d="M306.405 15.4242C306.405 15.4242 306.553 7.38508 305.641 5.26074C304.725 3.14117 304.104 1.67084 301.34 2.08139C297.211 2.71153 297.373 3.58036 295.101 2.83087C292.838 2.09093 288.575 -0.00476566 287.286 8.14224e-06C285.133 0.00478194 282.135 1.46079 282.951 5.29893C283.543 8.13457 281.939 9.25641 282.021 9.35189C282.259 9.65741 283.08 9.79585 284.522 10.1205C288.661 11.0609 290.967 10.8843 293.607 9.45214C296.251 8.02 301.116 5.13185 302.247 7.07001C303.379 9.00817 304.701 15.4576 305.064 15.8872C305.426 16.3264 305.999 15.9206 306.405 15.4242Z" fill="#272727"/>
<path d="M303.674 22.3559C303.808 22.8954 304.357 23.2295 304.906 23.0959L307.77 22.3941C308.305 22.2605 308.643 21.7115 308.51 21.1673L307.226 15.9304C307.087 15.3862 306.543 15.052 305.999 15.1857L303.135 15.8922C302.59 16.0259 302.256 16.5701 302.395 17.1143L303.674 22.3559Z" fill="#E9D6B8"/>
<path d="M286.588 26.5473C286.717 27.0963 287.266 27.4257 287.806 27.292L290.67 26.5855C291.209 26.4613 291.548 25.9076 291.415 25.3634L290.13 20.1265C289.992 19.5871 289.443 19.2434 288.908 19.3818L286.039 20.0788C285.5 20.2172 285.171 20.7662 285.299 21.3104L286.588 26.5473Z" fill="#E9D6B8"/>
<path d="M305.555 17.4629C305.555 17.4629 307.46 25.1965 308.09 27.7791C308.668 30.1087 308.997 35.4601 295.822 38.6872C288.021 40.6063 286.899 34.8109 286.436 32.9252C286.078 31.4883 286.656 26.8004 287.272 25.7741C287.296 25.7407 288.059 28.9725 288.059 28.9725C288.059 28.9725 288.914 25.4638 292.623 24.552C298.6 23.0769 300.82 26.2419 303.445 25.5402C305.46 24.9912 306.171 21.3106 305.555 17.4629Z" fill="#272727"/>
<path d="M296.324 29.0247L292.232 30.0272C291.693 30.1609 291.144 29.8315 291.006 29.2825L290.867 28.7096L296.925 27.2202L297.064 27.7931C297.202 28.3373 296.868 28.8863 296.324 29.0247Z" fill="#E9D6B8"/>
<path d="M108.324 225.49C106.534 225.49 103.708 225.08 101.23 222.927C97.669 219.829 96.127 214.315 96.6474 206.548C96.9959 201.301 99.0582 195.998 101.245 190.374C104.925 180.917 109.093 170.2 106.911 156.027L110.959 155.401C113.303 170.663 108.735 182.416 105.064 191.859C102.906 197.406 101.039 202.204 100.729 206.82C100.309 213.121 101.397 217.609 103.88 219.805C106.228 221.886 109.169 221.351 109.293 221.328L110.114 225.342C110.047 225.352 109.36 225.49 108.324 225.49Z" fill="#367082"/>
<path d="M139.737 257.995L143.728 264.081L110.216 274.818C110.216 274.818 107.977 272.679 116.202 268.378C125.774 263.365 139.737 257.995 139.737 257.995Z" fill="#88BDDA"/>
<path d="M145.69 257.995L141.699 264.081L175.211 274.818C175.211 274.818 177.45 272.679 169.225 268.378C159.649 263.365 145.69 257.995 145.69 257.995Z" fill="#88BDDA"/>
<path d="M146.214 239.897H139.211V264.831H146.214V239.897Z" fill="#88BDDA"/>
<path d="M139.286 259.279L142.699 265.084L114.013 275.329C114.013 275.329 112.099 273.286 119.131 269.18C127.332 264.402 139.286 259.279 139.286 259.279Z" fill="#ACD5F4"/>
<path d="M146.133 259.279L142.725 265.084L171.41 275.329C171.41 275.329 173.325 273.286 166.288 269.18C158.087 264.402 146.133 259.279 146.133 259.279Z" fill="#ACD5F4"/>
<path d="M117.268 277.634C117.268 278.976 116.175 280.064 114.833 280.064C113.487 280.064 112.398 278.976 112.398 277.634C112.398 276.288 113.487 275.195 114.833 275.195C116.175 275.2 117.268 276.288 117.268 277.634Z" fill="#001F46"/>
<path d="M172.847 277.634C172.847 278.976 171.754 280.064 170.407 280.064C169.061 280.064 167.973 278.976 167.973 277.634C167.973 276.288 169.061 275.195 170.407 275.195C171.754 275.2 172.847 276.288 172.847 277.634Z" fill="#001F46"/>
<path d="M111.375 277.634C111.375 278.976 110.287 280.064 108.941 280.064C107.594 280.064 106.506 278.976 106.506 277.634C106.506 276.288 107.594 275.195 108.941 275.195C110.287 275.2 111.375 276.288 111.375 277.634Z" fill="#367082"/>
<path d="M178.738 277.634C178.738 278.976 177.649 280.064 176.303 280.064C174.961 280.064 173.873 278.976 173.873 277.634C173.873 276.288 174.961 275.195 176.303 275.195C177.644 275.2 178.738 276.288 178.738 277.634Z" fill="#367082"/>
<path d="M145.183 230.761H140.061V239.726H145.183V230.761Z" fill="#367082"/>
<path d="M149.028 226.025C149.028 228.78 146.789 231.018 144.035 231.018H141.218C138.464 231.018 136.225 228.78 136.225 226.025C136.225 223.261 138.464 221.027 141.218 221.027H144.035C146.789 221.027 149.028 223.261 149.028 226.025Z" fill="#367082"/>
<path d="M180.696 221.457C180.816 220.869 180.883 217.179 180.883 216.549C180.883 212.515 178.281 209.25 175.059 209.25H110.183C106.97 209.25 104.363 212.515 104.363 216.549C104.363 217.184 104.435 220.869 104.559 221.457H180.696Z" fill="#8DCFFF"/>
<path d="M103.762 223.433C103.762 224.669 104.483 225.672 105.375 225.672H179.87C180.763 225.672 181.484 224.669 181.484 223.433C181.484 222.201 180.763 221.199 179.87 221.199H105.375C104.483 221.199 103.762 222.201 103.762 223.433Z" fill="#367082"/>
<path d="M107.388 183.992C108.992 184.111 119.161 184.288 120.913 184.311C132.045 184.445 141.636 182.354 142.166 179.614C144.362 168.219 144.462 156.538 142.452 145.138C141.975 142.398 132.246 140.307 120.874 140.45C119.089 140.474 108.711 140.65 107.078 140.774C110.573 154.976 110.673 169.78 107.388 183.992Z" fill="#8DCFFF"/>
<path d="M105.859 140.77C104.613 140.784 103.744 141.376 103.916 142.092C107.014 155.454 107.134 169.317 104.265 182.679C104.107 183.395 104.966 183.987 106.189 184.002C107.406 184.021 108.537 183.448 108.69 182.727C111.597 169.327 111.507 155.435 108.427 142.04C108.26 141.319 107.11 140.751 105.859 140.77Z" fill="#367082"/>
<path d="M105.362 183.973C105.692 184.078 107.897 184.159 108.284 184.168C110.709 184.197 113.211 182.058 113.693 179.361C115.712 168.138 115.664 156.628 113.535 145.405C113.029 142.708 110.47 140.569 107.993 140.598C107.601 140.603 105.358 140.689 105.023 140.794C108.513 154.986 108.628 169.775 105.362 183.973Z" fill="#7DC2F5"/>
<path d="M177.424 275.277V280.027H200.83C200.83 280.027 197.097 273.582 189.296 272.226C181.496 270.866 177.424 275.277 177.424 275.277Z" fill="#281617"/>
<path d="M157.412 185.386L217.791 190.814L245.828 264.76L240.4 266.116C240.4 266.116 256.005 271.543 264.145 271.543C272.284 271.543 273.645 277.649 273.645 277.649L231.912 279.005L230.561 273.577L204.897 213.876L160.811 211.842L157.412 185.386Z" fill="#281617"/>
<path d="M122.133 202.347C122.133 202.347 106.527 205.059 103.138 174.53C99.7482 144.002 98.7266 119.579 98.7266 119.579L118.06 109.401H135.022C135.022 109.401 149.267 114.151 150.627 120.935C151.983 127.718 147.233 154.858 149.272 159.603C151.305 164.353 158.771 179.953 158.771 179.953L122.133 202.347Z" fill="#C5E1F9"/>
<path d="M150.628 120.935C150.628 120.935 166.911 138.574 169.623 147.73C172.334 156.891 176.406 166.047 171.656 169.442C166.907 172.836 163.856 174.531 162.496 172.492C161.14 170.458 140.789 147.053 150.628 120.935Z" fill="#9AC7F7"/>
<path d="M159.107 151.463H150.295C149.173 151.463 148.576 150.547 148.972 149.425L155.67 130.439C156.066 129.317 157.307 128.401 158.429 128.401H167.237C168.359 128.401 168.955 129.317 168.559 130.439L161.866 149.425C161.47 150.547 160.229 151.463 159.107 151.463Z" fill="#281617"/>
<path d="M133.329 157.908L145.937 149.024L148.257 147.392C148.257 147.392 152.329 153.497 150.629 157.569C148.935 161.641 136.723 164.353 134.685 164.014C132.651 163.675 133.329 157.908 133.329 157.908Z" fill="#F7B68B"/>
<path d="M155.711 149.091L154.695 157.908L149.267 159.608L148.25 147.396L155.711 149.091Z" fill="#EC9568"/>
<path d="M165.552 148.074L164.197 160.286L157.074 157.23C157.074 157.23 157.074 148.069 158.43 147.053C159.786 146.036 163.858 141.291 165.552 148.074Z" fill="#EC9568"/>
<path d="M116.705 200.309C116.705 200.309 122.811 180.636 141.806 177.92C160.801 175.208 164.195 175.208 164.195 175.208C164.195 175.208 177.084 192.847 190.651 268.827C191.186 271.815 173.69 276.966 173.69 276.966L153.339 209.126C153.339 209.131 127.561 217.27 116.705 200.309Z" fill="#3B47BC"/>
<path d="M150.967 193.864L173.69 276.971" stroke="#9AC7F7" stroke-miterlimit="10"/>
<path d="M107.888 126.701C107.888 126.701 101.105 116.862 98.3884 119.579C95.6769 122.29 84.8213 152.141 85.4992 161.641C86.177 171.141 86.8406 178.454 93.6385 178.941C117.383 180.636 136.039 167.069 136.039 167.069L134.345 153.162C134.345 153.162 107.21 154.857 105.172 156.896C103.138 158.924 107.206 136.879 107.888 126.701Z" fill="#9AC7F7"/>
<path d="M120.616 76.1086C120.616 76.1086 128.665 77.0347 131.276 74.0415C133.887 71.0483 126.459 71.8265 129.729 74.1418C133.004 76.457 140.575 72.7001 138.699 68.9097C136.818 65.124 133.734 63.4293 130.641 65.5203C127.547 67.6112 129.987 68.9192 131.195 66.8235C132.398 64.7278 127.953 59.405 123.857 66.6803C119.757 73.9556 121.838 74.5857 123.313 69.7308C124.783 64.8758 121.776 61.6965 119.294 67.3773C116.811 73.0581 120.272 76.0035 121.236 73.4543C122.201 70.9051 114.825 65.2625 114.1 70.1556C113.374 75.044 112.734 80.9062 116.463 81.0924C120.191 81.2786 111.87 68.1554 108.142 78.5718C104.418 88.9883 111.383 85.9903 111.718 83.6321C112.052 81.2738 99.1004 85.2934 108.944 89.036C118.788 92.7787 115.174 88.4632 116.081 86.0906C116.988 83.718 107.588 89.7616 112.429 95.0128C117.269 100.264 122.062 99.4477 121.227 94.0867C120.392 88.7257 114.677 91.3418 116.348 95.8244C118.019 100.307 115.164 102.847 114.09 103.276C113.016 103.706 120.845 107.215 122.506 102.99C124.158 98.7555 126.908 77.8271 120.616 76.1086Z" fill="#212A54"/>
<path d="M137.134 80.9251L137.244 78.6862L132.837 72.6187C132.837 72.6187 132.432 74.5759 125.004 75.354C113.933 76.5093 123.514 79.6361 123.934 84.4959C124.163 87.1501 123.548 89.031 122.75 89.833C124.975 93.9623 127.739 97.5331 130.737 100.178C130.761 100.068 130.775 100.006 130.775 100.006C130.775 100.006 130.775 100.006 135.473 101.997C140.17 103.987 139.626 98.9032 139.626 98.9032L139.082 89.4654L140.948 86.434L137.134 80.9251Z" fill="#F7B68B"/>
<path d="M137.133 80.9251L137.243 78.6862L132.837 72.6187C132.837 72.6187 132.431 74.5759 125.003 75.354C113.932 76.5093 123.514 79.6361 123.934 84.4911C124.354 89.3508 121.952 91.6518 120.745 89.389C119.537 87.131 115.723 85.9757 113.894 88.2576C112.066 90.5443 117.222 94.7548 118.386 95.299C119.546 95.8432 120.396 95.5329 120.396 95.5329C120.396 95.5329 116.171 107.157 113.985 112.895C115.188 113.735 124.373 114.432 128.006 112.895C128.55 107.973 130.774 100.006 130.774 100.006C130.774 100.006 130.774 100.006 135.472 101.997C140.169 103.987 139.625 98.9032 139.625 98.9032L139.081 89.4654L140.947 86.434L137.133 80.9251Z" fill="#F7B68B"/>
<path d="M347.117 181.647L304.601 173.957C304.601 173.957 291.034 170.338 288.318 183.003C285.153 197.763 278.369 263.508 278.369 263.508L277.916 266.673L257.111 277.982H288.771L286.508 268.034L305.503 201.096C305.503 201.096 338.065 210.595 348.921 210.595C359.777 210.595 367.916 206.523 367.916 204.714C367.921 202.9 354.802 180.74 347.117 181.647Z" fill="#212957"/>
<path d="M336.91 107.897C336.91 107.897 347.25 98.7075 339.273 84.1188C334.853 76.0319 337.173 53.9388 351.485 60.794C365.801 67.6539 361.92 59.104 370.002 62.9135C378.089 66.7278 381.66 72.4611 380.571 78.7244C379.478 84.978 380.189 96.9078 385.159 99.1992C390.128 101.491 413.935 114.318 398.592 130.52C383.245 146.722 327.453 134.826 336.91 107.897Z" fill="#212957"/>
<path d="M385.417 225.49C387.207 225.49 390.033 225.079 392.511 222.926C396.072 219.828 397.614 214.314 397.093 206.547C396.745 201.301 394.683 195.997 392.496 190.374C388.816 180.917 384.648 170.2 386.83 156.026L382.782 155.401C380.438 170.663 385.006 182.416 388.677 191.858C390.835 197.406 392.702 202.203 393.012 206.82C393.432 213.121 392.344 217.608 389.861 219.804C387.512 221.886 384.572 221.351 384.448 221.327L383.627 225.342C383.698 225.351 384.386 225.49 385.417 225.49Z" fill="#367082"/>
<path d="M354.007 257.994L350.016 264.081L383.528 274.817C383.528 274.817 385.767 272.678 377.541 268.377C367.975 263.365 354.007 257.994 354.007 257.994Z" fill="#88BDDA"/>
<path d="M348.059 257.994L352.05 264.081L318.538 274.817C318.538 274.817 316.299 272.678 324.524 268.377C334.096 263.365 348.059 257.994 348.059 257.994Z" fill="#88BDDA"/>
<path d="M354.538 239.897H347.535V264.831H354.538V239.897Z" fill="#88BDDA"/>
<path d="M354.454 259.279L351.041 265.084L379.727 275.328C379.727 275.328 381.641 273.285 374.609 269.18C366.408 264.401 354.454 259.279 354.454 259.279Z" fill="#ACD5F4"/>
<path d="M347.615 259.279L351.023 265.084L322.337 275.328C322.337 275.328 320.423 273.285 327.46 269.18C335.656 264.401 347.615 259.279 347.615 259.279Z" fill="#ACD5F4"/>
<path d="M376.482 277.634C376.482 278.975 377.576 280.064 378.917 280.064C380.263 280.064 381.352 278.975 381.352 277.634C381.352 276.288 380.263 275.194 378.917 275.194C377.571 275.199 376.482 276.288 376.482 277.634Z" fill="#001F46"/>
<path d="M320.895 277.634C320.895 278.975 321.988 280.064 323.334 280.064C324.68 280.064 325.769 278.975 325.769 277.634C325.769 276.288 324.68 275.194 323.334 275.194C321.988 275.199 320.895 276.288 320.895 277.634Z" fill="#001F46"/>
<path d="M382.373 277.634C382.373 278.975 383.461 280.064 384.808 280.064C386.154 280.064 387.242 278.975 387.242 277.634C387.242 276.288 386.154 275.194 384.808 275.194C383.461 275.199 382.373 276.288 382.373 277.634Z" fill="#367082"/>
<path d="M315.01 277.634C315.01 278.975 316.098 280.064 317.444 280.064C318.786 280.064 319.874 278.975 319.874 277.634C319.874 276.288 318.786 275.194 317.444 275.194C316.098 275.199 315.01 276.288 315.01 277.634Z" fill="#367082"/>
<path d="M353.681 230.76H348.559V239.725H353.681V230.76Z" fill="#367082"/>
<path d="M344.723 226.025C344.723 228.779 346.962 231.018 349.716 231.018H352.533C355.287 231.018 357.526 228.779 357.526 226.025C357.526 223.261 355.287 221.026 352.533 221.026H349.716C346.957 221.026 344.723 223.261 344.723 226.025Z" fill="#367082"/>
<path d="M313.052 221.456C312.933 220.869 312.861 217.179 312.861 216.549C312.861 212.515 315.463 209.25 318.685 209.25H383.566C386.779 209.25 389.385 212.515 389.385 216.549C389.385 217.184 389.314 220.869 389.19 221.456H313.052Z" fill="#8DCFFF"/>
<path d="M389.987 223.432C389.987 224.669 389.266 225.671 388.373 225.671H313.873C312.981 225.671 312.26 224.669 312.26 223.432C312.26 222.201 312.981 221.198 313.873 221.198H388.368C389.266 221.198 389.987 222.201 389.987 223.432Z" fill="#367082"/>
<path d="M386.355 183.991C384.751 184.111 374.583 184.287 372.831 184.311C361.699 184.445 352.108 182.354 351.573 179.614C349.377 168.219 349.277 156.537 351.287 145.137C351.764 142.397 361.493 140.306 372.864 140.449C374.65 140.473 385.028 140.65 386.661 140.774C383.176 154.976 383.071 169.78 386.355 183.991Z" fill="#8DCFFF"/>
<path d="M387.882 140.769C389.128 140.783 389.997 141.375 389.825 142.091C386.727 155.453 386.607 169.316 389.476 182.678C389.634 183.394 388.775 183.986 387.553 184.001C386.335 184.02 385.204 183.447 385.051 182.726C382.144 169.326 382.235 155.434 385.314 142.039C385.486 141.318 386.631 140.75 387.882 140.769Z" fill="#367082"/>
<path d="M388.378 183.972C388.049 184.077 385.844 184.158 385.457 184.168C383.032 184.197 380.53 182.058 380.048 179.361C378.029 168.138 378.077 156.628 380.206 145.405C380.712 142.707 383.27 140.569 385.748 140.597C386.14 140.602 388.383 140.688 388.717 140.793C385.228 154.986 385.113 169.775 388.378 183.972Z" fill="#7DC2F5"/>
<path d="M368.896 91.0786C368.896 91.0786 365.84 106.345 367.879 111.768C369.912 117.196 353.973 113.124 353.973 113.124C353.973 113.124 354.651 100.574 354.989 97.8574C355.324 95.1507 368.896 91.0786 368.896 91.0786Z" fill="#F7B68B"/>
<path d="M354.262 98.5068C354.573 96.0148 367.027 92.2817 367.027 92.2817C367.027 92.2817 357.972 105.41 354.888 105.667C354.463 105.701 354.081 105.691 353.732 105.653C353.909 102.693 354.119 99.6525 354.262 98.5068Z" fill="#EC9568"/>
<path d="M346.48 78.2754C346.48 78.2754 345.544 91.0405 347.101 94.7736C348.657 98.5068 349.278 101.309 353.015 100.999C356.753 100.688 362.663 95.0839 366.091 92.9071C369.514 90.7302 372.006 88.2383 370.76 85.1258C369.514 82.0133 367.957 84.5052 367.957 85.4361C367.957 86.3718 358.31 87.928 350.839 83.2592C348.972 82.0897 346.165 80.1419 346.48 78.2754Z" fill="#F7B68B"/>
<path d="M353.867 174.224L321.238 147.744C321.238 147.744 315.004 148.426 317.93 152.412C320.856 156.399 340.2 179.781 340.2 179.781C340.2 179.781 359.944 188.741 353.867 174.224Z" fill="#EC9568"/>
<path d="M313.485 266.788C313.485 266.788 313.938 271.199 313.938 272.555C313.938 273.911 310.998 277.758 310.773 278.885C310.549 280.016 310.549 280.016 310.549 280.016H332.709C332.709 280.016 333.162 277.754 329.544 274.818C325.925 271.877 324.794 269.843 324.34 266.11C323.887 262.377 313.485 266.788 313.485 266.788Z" fill="#C5E1F9"/>
<path d="M352.95 112.786C352.95 112.786 340.06 114.819 338.366 119.908C336.671 124.997 337.349 128.047 337.349 130.425C337.349 132.802 353.632 121.947 352.95 112.786Z" fill="#7CBCF0"/>
<path d="M366.861 111.091L352.955 112.786C352.955 112.786 337.35 129.069 333.96 129.747C330.566 130.425 335.14 167.57 334.299 172.601C333.846 175.313 346.511 176.559 353.294 177.576C360.078 178.592 369.578 177.576 369.578 177.576C369.578 177.576 366.184 166.72 368.561 155.525C370.933 144.331 381.45 135.853 379.078 128.047C376.695 120.252 383.479 120.252 366.861 111.091Z" fill="#A9D8FF"/>
<path d="M376.696 120.252C376.696 120.252 372.963 130.769 373.641 137.552C374.319 144.336 376.352 160.958 376.352 160.958C376.352 160.958 380.424 180.292 388.225 177.919C396.025 175.547 395.347 153.497 389.92 139.591C384.501 125.675 379.073 116.858 376.696 120.252Z" fill="#7CBCF0"/>
<path d="M392.139 171.183C392.139 171.183 391.8 175.084 391.8 175.933C391.8 176.783 388.067 177.8 384.167 177.8C380.267 177.8 351.433 161.178 348.721 159.994C346.01 158.805 339.732 157.11 338.205 156.943C336.677 156.771 335.493 152.532 336.338 149.821C336.901 148.026 337.46 146.45 338.315 145.94C338.754 145.677 339.265 145.691 339.899 146.092C341.766 147.281 349.227 153.726 349.227 153.726C349.227 153.726 366.695 156.948 373.65 160.003C380.606 163.044 388.75 166.772 392.139 171.183Z" fill="#F7B68B"/>
<path d="M329.386 147.099L338.318 145.93L336.342 149.811L337.53 155.745L332.613 156.594C332.613 156.594 331.935 155.745 332.785 155.406C333.635 155.067 334.819 154.556 334.819 154.556C334.819 154.556 332.446 154.217 331.425 154.045C330.408 153.873 330.236 153.534 330.236 153.028C330.236 152.518 331.253 152.179 331.253 152.179C331.253 152.179 329.386 151.501 329.219 150.99C329.047 150.479 328.708 149.801 329.047 149.295C329.386 148.789 328.875 147.438 329.386 147.099Z" fill="#EC9568"/>
<path d="M369.574 177.575H353.291L305.959 167.173C305.959 167.173 286.964 162.199 291.938 175.766C296.912 189.333 313.945 263.508 313.945 263.508L324.347 262.606C324.347 262.606 322.538 213.307 317.564 204.714C312.589 196.121 312.136 193.405 312.136 193.405C312.136 193.405 345.152 211.044 358.719 210.137C372.291 209.235 383.595 198.833 369.574 177.575Z" fill="#3B47BC"/>
<path d="M365.21 178.932C365.21 178.932 374.256 194.761 365.663 196.571C357.071 198.38 302.344 178.029 302.344 178.029C302.344 178.029 316.503 200.643 324.351 262.607" stroke="#8DCFFF" stroke-width="0.5" stroke-miterlimit="10"/>
<path d="M332.085 151.162C332.095 151.143 332.104 151.119 332.114 151.105L332.085 149.296H257.27V151.105C257.27 151.105 257.256 151.143 257.27 151.162L257.461 151.497C258.421 153.062 260.149 153.344 262.125 153.344H327.235C329.211 153.344 330.935 153.062 331.899 151.497L332.085 151.162Z" fill="#D0DEE6"/>
<path d="M314.056 151.468C314.056 151.468 314.046 151.501 314.056 151.515L314.242 151.787C314.538 152.188 314.91 152.489 315.335 152.709H326.711C328.611 152.709 330.272 152.48 331.193 151.215L331.37 150.938C331.384 150.923 331.394 150.909 331.404 150.89L331.384 150.002H314.051V151.468H314.056Z" fill="#B6C2C9"/>
<path d="M303.96 149.716H266.576V150.995H303.96V149.716Z" fill="#B6C2C9"/>
<path d="M313.64 149.234L303.94 112.471C303.682 111.497 302.689 110.714 301.72 110.714H249.232C248.263 110.714 247.685 111.502 247.938 112.471L257.639 149.234H313.64Z" fill="#D7DFE2"/>
<path d="M283.956 129.972C284.453 131.848 283.326 133.371 281.455 133.371C279.574 133.371 277.655 131.848 277.159 129.972C276.662 128.091 277.784 126.568 279.66 126.568C281.541 126.573 283.465 128.096 283.956 129.972Z" fill="#B6C2C9"/>
<path d="M156.869 279.635H149.207L161.843 157.273H172.947L156.869 279.635Z" fill="#163F59"/>
<path d="M172.208 162.911L167.339 199.97L161.562 160.032L161.844 157.273H171.549L172.208 162.911Z" fill="#212957"/>
<path d="M259.464 279.635H251.807L264.438 157.273H275.542L259.464 279.635Z" fill="#163F59"/>
<path d="M274.801 162.911L269.931 199.97L264.15 160.032L264.437 157.273H274.142L274.801 162.911Z" fill="#212957"/>
<path d="M339.857 279.635H347.515L334.883 157.273H323.779L339.857 279.635Z" fill="#163F59"/>
<path d="M324.52 162.911L339.38 200.676L335.165 160.032L334.883 157.273H325.178L324.52 162.911Z" fill="#212957"/>
<path d="M345.603 153.301H253.277V160.452H345.603V153.301Z" fill="#387BFF"/>
<path d="M257.548 153.301H152.715V160.452H257.548V153.301Z" fill="#7EB3FF"/>
<path d="M10.4111 271.266L7.00232 274.668L7.84746 275.512L11.2562 272.109L10.4111 271.266Z" fill="white"/>
<path d="M15.4086 266.281L11.9999 269.684L12.845 270.527L16.2538 267.125L15.4086 266.281Z" fill="white"/>
<path d="M7.84514 266.278L7 267.121L10.4087 270.524L11.2539 269.68L7.84514 266.278Z" fill="white"/>
<path d="M12.845 271.268L11.9999 272.112L15.4086 275.514L16.2538 274.671L12.845 271.268Z" fill="white"/>
<path d="M77.6713 46L72.6713 40L77.6713 34L82.6713 40L77.6713 46ZM74.2461 40L77.6713 44.1096L81.0964 40L77.6713 35.8904L74.2461 40Z" fill="white"/>
<path d="M495 265C494.209 265 493.436 264.766 492.779 264.327C492.121 263.888 491.609 263.264 491.306 262.533C491.002 261.803 490.923 260.999 491.076 260.224C491.229 259.448 491.609 258.735 492.168 258.176C492.726 257.616 493.437 257.234 494.213 257.078C494.988 256.923 495.792 257 496.523 257.301C497.254 257.602 497.879 258.113 498.32 258.769C498.761 259.426 498.998 260.198 499 260.989C499.001 262.051 498.58 263.07 497.83 263.822C497.08 264.574 496.062 264.998 495 265ZM495 258.142C494.436 258.142 493.884 258.31 493.414 258.623C492.945 258.937 492.579 259.383 492.363 259.904C492.147 260.426 492.091 260.999 492.201 261.553C492.311 262.107 492.583 262.615 492.982 263.014C493.381 263.413 493.89 263.685 494.443 263.795C494.997 263.905 495.571 263.849 496.092 263.633C496.614 263.417 497.059 263.051 497.373 262.582C497.686 262.112 497.854 261.561 497.854 260.996C497.853 260.24 497.552 259.514 497.017 258.979C496.482 258.444 495.757 258.143 495 258.142Z" fill="white"/>
<path d="M467.837 74.2111L464.503 46L461.163 74.2111L443 76L461.163 77.7832L464.503 106L467.837 77.7832L486 76L467.837 74.2111Z" fill="white"/>
<path d="M24.8366 198.211L21.5028 170L18.1633 198.211L0 200L18.1633 201.783L21.5028 230L24.8366 201.783L43 200L24.8366 198.211Z" fill="white"/>
</svg>