<svg width="524" height="407" viewBox="0 0 524 407" fill="none" xmlns="http://www.w3.org/2000/svg">
<path d="M89.9031 179.513C40.5981 179.513 0.628525 139.534 0.628525 90.2181C0.628525 40.902 40.5981 0.923462 89.9031 0.923462C139.208 0.923462 179.178 40.902 179.178 90.2181C179.178 139.534 139.208 179.513 89.9031 179.513Z" fill="white"/>
<path d="M125.063 102.662C123.653 101.273 121.488 101.293 119.179 101.293H118.362H104.879C102.591 101.273 100.405 101.252 98.9953 102.662C98.1986 103.459 97.79 104.603 97.79 106.054V107.566C84.2252 106.769 73.357 95.8987 72.5602 82.3308H74.072C75.5224 82.3308 76.6664 81.9221 77.4632 81.1252C78.8523 79.7153 78.8524 77.5493 78.8319 75.2404V74.423V60.9369C78.8524 58.6483 78.8728 56.4619 77.4632 55.052C76.6664 54.2551 75.5224 53.8464 74.072 53.8464H61.406C57.0342 53.8464 53.5 57.4019 53.5 61.7542V64.9214V74.423C53.5 103.214 76.932 126.651 105.716 126.651H115.216H118.382C122.754 126.651 126.288 123.096 126.288 118.743V106.075C126.268 104.603 125.859 103.459 125.063 102.662Z" fill="#004F92"/>
<path d="M119.627 235.84L123.987 221.835C125.307 218.532 128.214 216.121 131.664 215.378C131.681 215.196 131.697 215.015 131.764 214.849L132.787 212.306C134.191 208.821 137.361 206.294 141.076 205.716C141.373 205.667 141.671 205.65 141.968 205.634C141.984 205.535 141.984 205.419 142.017 205.32L143.025 202.777C144.345 199.49 149.928 194.608 158.192 197.359L135.604 161.593C134.118 159.265 133.363 156.95 134.502 154.44C135.625 151.946 136.668 149.917 139.359 149.488C142.05 149.059 144.775 150 146.608 152.015L192.361 201.924C192.494 202.073 192.609 202.255 192.692 202.436L200.612 241.378L236.973 360.23L252.86 406.193C253.009 406.705 252.909 407.25 252.596 407.663C252.282 408.076 251.803 408.323 251.275 408.323C251.258 408.323 251.258 408.323 251.242 408.323L164.853 406.853C163.994 406.837 163.284 406.16 163.235 405.301L157.059 293.822L148.275 284.297C148.275 284.297 140.011 273.292 137.257 269.44C137.257 269.44 135.946 269.44 132.849 263.388C129.752 257.335 133.4 249.632 133.4 249.632L126.238 247.981C122.382 245.78 124.664 247.996 122.352 242.843L119.71 236.98C119.528 236.65 119.495 236.237 119.627 235.84Z" fill="white"/>
<path d="M237.337 362.228C237.503 362.228 237.668 362.195 237.833 362.145C238.708 361.865 239.187 360.94 238.906 360.064L201.21 241.071L192.842 201.342C192.776 201.144 192.66 200.979 192.512 200.83L146.758 150.921C144.908 148.906 142.2 147.948 139.509 148.394C136.818 148.823 134.523 150.557 133.4 153.051C132.26 155.561 132.459 158.435 133.945 160.764L158.415 199.178C158.91 199.955 159.934 200.169 160.694 199.69C161.47 199.195 161.684 198.171 161.205 197.411L136.735 158.997C135.86 157.626 135.744 155.908 136.405 154.422C137.082 152.919 138.403 151.928 140.021 151.664C141.656 151.399 143.208 151.961 144.314 153.167L187.999 200.838C189.213 202.162 190.047 203.79 190.415 205.548L198.073 242.194L235.736 361.088C235.983 361.782 236.627 362.228 237.337 362.228Z" fill="#181B31"/>
<path d="M176.934 216.913L158.193 198.796C156.162 196.831 153.338 195.939 150.548 196.368C147.394 196.847 144.736 198.978 143.547 201.934L142.54 204.477L176.934 216.913Z" fill="white"/>
<path d="M176.933 218.565C177.362 218.565 177.791 218.4 178.122 218.053C178.749 217.392 178.733 216.352 178.089 215.724L159.348 197.607C156.954 195.295 153.585 194.221 150.299 194.733C146.584 195.311 143.414 197.838 142.011 201.323L140.987 203.866C140.64 204.709 141.053 205.666 141.911 206.013C142.754 206.36 143.711 205.947 144.058 205.088L145.082 202.545C146.039 200.134 148.235 198.383 150.811 197.987C153.073 197.64 155.401 198.383 157.053 199.969L175.793 218.086C176.107 218.4 176.52 218.565 176.933 218.565Z" fill="#181B31"/>
<path d="M166.699 226.426L147.958 208.309C145.928 206.343 143.104 205.452 140.314 205.881C137.16 206.36 134.485 208.49 133.313 211.447L132.305 213.99L166.699 226.426Z" fill="white"/>
<path d="M166.698 228.078C167.128 228.078 167.557 227.913 167.887 227.566C168.515 226.905 168.498 225.865 167.854 225.237L149.113 207.12C146.719 204.807 143.351 203.734 140.065 204.246C136.35 204.824 133.18 207.334 131.776 210.836L130.769 213.379C130.422 214.221 130.835 215.179 131.694 215.526C132.536 215.856 133.493 215.46 133.84 214.601L134.847 212.058C135.805 209.647 138.001 207.896 140.577 207.516C142.839 207.169 145.184 207.912 146.818 209.498L165.559 227.615C165.856 227.929 166.286 228.078 166.698 228.078Z" fill="#181B31"/>
<path d="M164.852 406.902C164.885 406.902 164.918 406.902 164.951 406.902C165.859 406.852 166.553 406.076 166.503 405.168L160.278 292.764C160.245 292.186 159.915 291.674 159.403 291.393C159.403 291.393 151.883 287.348 149.562 284.847C144.968 279.895 144.418 279.345 140.561 273.842C140.561 273.842 138.472 270.467 137.256 268.34C135.048 264.479 134.055 257.885 134.336 257.335L135.921 248.929C136.02 248.4 135.855 247.855 135.491 247.475C135.112 247.096 134.583 246.914 134.055 246.996C129.167 247.74 124.362 245.13 122.348 240.638L119.97 235.353L124.098 222.058C125.023 219.763 127.219 218.028 129.778 217.632C132.04 217.285 134.385 218.028 136.02 219.614L154.76 237.731C155.421 238.359 156.461 238.342 157.089 237.698C157.716 237.038 157.7 235.997 157.056 235.37L138.315 217.252C135.937 214.94 132.552 213.867 129.266 214.379C125.551 214.957 122.381 217.467 120.978 220.968L116.618 234.973C116.503 235.353 116.519 235.766 116.685 236.146L119.326 242.009C121.638 247.145 126.773 250.399 132.288 250.448L131.099 256.757C130.094 263.388 133.854 268.34 133.399 267.79L135.603 271.091C140.561 278.244 143.316 283.196 149.562 289.907L157.042 293.887L163.218 405.366C163.251 406.225 163.977 406.902 164.852 406.902Z" fill="#181B31"/>
<path d="M134.107 250.332C134.916 250.332 135.626 249.738 135.741 248.912C136.947 240.027 129.236 233.751 128.922 233.487C128.212 232.909 127.172 233.041 126.594 233.751C126.032 234.461 126.148 235.502 126.858 236.063C126.924 236.113 133.43 241.464 132.472 248.466C132.356 249.375 132.984 250.2 133.892 250.332C133.958 250.316 134.024 250.332 134.107 250.332Z" fill="#181B31"/>
<path d="M345.187 126.795C320.85 126.795 301.121 110.447 301.121 90.28C301.121 70.1135 320.85 53.7653 345.187 53.7653C369.523 53.7653 389.252 70.1135 389.252 90.28C389.252 110.447 369.523 126.795 345.187 126.795Z" fill="#181B31"/>
<path d="M418.953 330.047L332.028 295.515L330.046 208.1L411.17 206.24L418.953 330.047Z" fill="white"/>
<path d="M418.953 332.091C419.382 332.091 419.791 331.968 420.159 331.703C420.731 331.294 421.037 330.62 420.996 329.925L413.213 206.118C413.152 205.015 412.191 204.115 411.129 204.197L330.006 206.057C328.882 206.077 327.983 207.017 328.004 208.141L330.006 295.556C330.026 296.373 330.537 297.109 331.293 297.415L418.198 331.948C418.443 332.05 418.688 332.091 418.953 332.091ZM409.25 208.345L416.706 326.962L334.051 294.105L332.13 210.082L409.25 208.345Z" fill="#181B31"/>
<path d="M391.232 238.198C409.883 232.252 426.533 219.216 436.829 200.376C457.646 162.349 444.183 116.006 407.84 95.0001C348.188 60.5491 309.393 109.59 305.123 121.666C304.122 124.486 303.162 127.224 302.182 129.86C300.037 134.089 298.321 138.442 296.993 142.835C292.866 151.907 288.29 158.405 281.977 160.551C272.314 163.861 277.544 238.832 333.601 233.315L391.232 238.198Z" fill="white"/>
<path d="M391.232 240.242C391.436 240.242 391.64 240.201 391.845 240.14C411.804 233.785 428.413 220.013 438.607 201.357C459.812 162.615 446.737 115.107 408.842 93.2224C386.247 80.1653 364.327 77.4272 343.653 85.0489C321.058 93.3858 306.145 112.552 303.163 120.971C302.182 123.75 301.222 126.447 300.282 129.042C298.157 133.272 296.401 137.665 295.052 142.099C290.619 151.785 286.37 156.873 281.304 158.61C275.359 160.653 274.828 175.835 277.769 189.362C280.609 202.419 286.492 214.005 294.337 221.995C304.613 232.436 317.892 236.931 333.786 235.358C334.909 235.256 335.726 234.255 335.624 233.131C335.522 232.007 334.521 231.19 333.397 231.292C294.95 235.072 284.164 199.497 281.773 188.504C278.546 173.608 280.793 163.126 282.631 162.492C288.883 160.347 293.888 154.543 298.832 143.673C298.872 143.591 298.893 143.509 298.934 143.428C300.241 139.137 301.937 134.866 304 130.779C304.041 130.718 304.061 130.636 304.102 130.554C305.062 127.919 306.043 125.16 307.044 122.34C309.066 116.619 322.345 97.2886 345.083 88.8905C364.531 81.6978 385.307 84.3542 406.799 96.7778C442.754 117.538 455.154 162.615 435.032 199.395C425.328 217.131 409.557 230.209 390.598 236.237C389.516 236.584 388.923 237.728 389.271 238.811C389.557 239.67 390.353 240.242 391.232 240.242Z" fill="#181B31"/>
<path d="M421.426 81.8819C396.81 68.4162 368.148 69.2335 344.471 81.4937C351.845 83.2509 359.036 85.9277 365.941 89.7079C412.662 115.291 427.208 178.676 398.423 231.272C396.83 234.194 395.114 237.013 393.316 239.731C417.545 235.215 439.874 219.951 452.867 196.187C475.461 154.932 461.365 103.746 421.426 81.8819Z" fill="#181B31"/>
<path d="M339.158 76.1605C339.158 76.1605 345.695 98.3922 364.286 109.181C374.112 114.882 355.277 113.084 356.727 124.772C367.554 212.33 374.521 228.881 374.521 228.881C376.155 236.4 382.508 241.979 390.169 242.633L413.254 244.615L420.506 223.425L432.273 132.148C432.273 132.148 384.899 63.7982 339.158 76.1605Z" fill="#181B31"/>
<path d="M293.908 198.149C293.99 198.149 294.051 198.149 294.133 198.128C301.977 197.27 305.961 190.139 306.124 189.853C306.676 188.872 306.308 187.625 305.307 187.074C304.327 186.542 303.08 186.89 302.529 187.891C302.468 188.014 299.342 193.449 293.663 194.082C292.539 194.205 291.722 195.206 291.865 196.33C291.987 197.372 292.866 198.149 293.908 198.149Z" fill="#181B31"/>
<path d="M327.514 138.442C328.515 138.442 329.393 137.706 329.536 136.664C330.026 132.966 327.636 128 323.734 124.588C319.506 120.89 314.357 119.643 309.271 121.033C308.188 121.339 307.555 122.463 307.841 123.546C308.147 124.629 309.271 125.283 310.353 124.976C315.399 123.587 319.22 126.059 321.038 127.653C324.163 130.391 325.757 134.09 325.491 136.113C325.348 137.236 326.125 138.258 327.248 138.401C327.33 138.422 327.432 138.442 327.514 138.442Z" fill="#181B31"/>
<path d="M310.865 148.863C309.496 150.784 307.29 151.54 305.901 150.559C304.511 149.578 304.512 147.228 305.86 145.308C307.229 143.387 309.435 142.631 310.824 143.612C312.213 144.592 312.213 146.942 310.865 148.863Z" fill="#181B31"/>
<path d="M359.648 116.925C359.648 116.925 328.065 139.954 332.028 156.403C335.971 172.852 364.919 176.142 361.63 204.442C358.341 232.743 353.642 246.617 319.383 248.374C273.683 250.724 257.054 292.613 257.054 318.257C257.054 343.901 374.133 280.761 374.133 280.761C374.133 280.761 414.255 239.302 359.648 116.925Z" fill="#181B31"/>
<path d="M382.672 69.5605C404.388 58.3833 480.69 81.4119 472.13 159.039C467.881 197.638 458.974 255.751 470.823 275.49C482.672 295.229 513.581 316.275 498.443 332.07C483.305 347.865 400.425 357.081 389.25 345.229C378.075 333.378 340.568 294.575 383.326 222.853C426.084 151.131 382.018 115.618 377.401 112.982C372.805 110.346 350.844 85.9686 382.672 69.5605Z" fill="#181B31"/>
<path d="M358.114 207.753C345.658 207.753 335.561 197.653 335.561 185.194C335.561 172.735 345.658 162.635 358.114 162.635C370.57 162.635 380.668 172.735 380.668 185.194C380.668 197.653 370.57 207.753 358.114 207.753Z" fill="white"/>
<path d="M348.004 192.673C349.128 192.673 350.047 191.753 350.047 190.629C350.047 184.213 360.221 179.759 364.143 178.594C365.226 178.267 365.839 177.123 365.512 176.04C365.185 174.957 364.061 174.344 362.958 174.671C362.263 174.875 345.941 179.902 345.941 190.629C345.961 191.753 346.88 192.673 348.004 192.673Z" fill="#181B31"/>
<path d="M514.396 407L497.114 310.063C491.087 276.246 460.035 252.768 425.857 256.18L323.549 266.417C307.267 268.052 292.252 275.878 281.588 288.281L183.161 407.02H514.396V407Z" fill="#004F92"/>
<path d="M367.133 348.811C341.627 323.3 341.627 281.938 367.133 256.427C392.638 230.916 433.991 230.916 459.496 256.427C485.001 281.938 485.002 323.3 459.496 348.811C433.991 374.322 392.638 374.322 367.133 348.811Z" fill="#181B31"/>
<path d="M403.223 316.895C397.845 283.755 420.346 252.529 453.478 247.151C486.611 241.773 517.83 264.278 523.207 297.418C528.584 330.558 506.084 361.784 472.951 367.162C439.818 372.541 408.6 350.035 403.223 316.895Z" fill="#181B31"/>
<path d="M447.234 290.188C427.532 282.025 418.177 259.433 426.338 239.728C434.498 220.022 457.085 210.664 476.787 218.827C496.488 226.989 505.843 249.581 497.683 269.287C489.522 288.993 466.935 298.35 447.234 290.188Z" fill="#181B31"/>
<path d="M318.463 405.753C319.137 405.753 319.791 405.427 320.179 404.813L338.83 375.777C339.443 374.837 339.157 373.571 338.218 372.958C337.257 372.345 336.011 372.631 335.398 373.571L316.747 402.607C316.134 403.547 316.42 404.814 317.36 405.427C317.707 405.651 318.075 405.753 318.463 405.753Z" fill="#181B31"/>
</svg>