<svg xmlns="http://www.w3.org/2000/svg" width="500" height="280" viewBox="0 0 500 280" fill="none"><path d="M393 82.5001C393 97.462 432.078 114.093 435.5 140.5C438.137 160.85 420.76 194.435 412 212C407.5 215 408.499 217.5 408.499 225C372.007 242.5 322.499 237.5 303.499 224C305.499 184.615 305.999 194.076 305.999 173.5C297.499 181 278.313 174.858 267.499 170C236.234 155.954 208.326 125 235 125C250.959 125 228.051 88.1776 251 88.5C358 74 393 62.5612 393 82.5001Z" fill="#347CB9"/><path d="M453.546 157.667C453.522 158.857 453.471 160.047 453.399 161.183C453.154 165.271 452.577 169.333 451.676 173.328C450.273 179.635 447.831 185.667 444.45 191.176C436.226 204.437 423.175 212.553 408.428 216.443C408.428 215.841 408.4 215.239 408.383 214.644C408.383 214.304 408.363 214.005 408.356 213.685C408.309 212.074 408.254 210.482 408.193 208.925C408.193 208.551 408.162 208.177 408.145 207.813V207.585C408.125 207.109 408.104 206.64 408.084 206.174C408.036 205.093 407.985 204.032 407.934 203.005C407.916 202.658 407.899 202.318 407.883 201.985C407.869 201.718 407.855 201.452 407.842 201.19C407.842 200.955 407.818 200.72 407.804 200.489C407.787 200.149 407.767 199.84 407.753 199.52C407.74 199.2 407.716 198.888 407.699 198.575C407.699 198.418 407.678 198.262 407.671 198.109L407.641 197.568C407.641 197.446 407.624 197.32 407.62 197.201C407.617 197.082 407.6 196.902 407.593 196.756C407.511 195.453 407.436 194.236 407.365 193.121C407.365 192.975 407.344 192.828 407.334 192.682C407.334 192.434 407.3 192.196 407.286 191.958L407.627 191.812C412.233 189.755 416.26 187.575 419.322 185.385L419.769 185.045C422.494 183.029 424.402 181.006 425.168 179.071C426.289 176.239 425.659 165.684 423.615 153.889C422.102 145.15 419.809 135.728 416.876 128.258C416.747 127.85 416.607 127.442 416.464 127.034C416.042 125.842 415.604 124.677 415.153 123.539C415.03 123.236 414.911 122.933 414.788 122.638C414.665 122.342 414.543 122.043 414.417 121.747C414.291 121.451 414.168 121.162 414.042 120.869C413.916 120.577 413.814 120.346 413.701 120.084C413.562 119.768 413.425 119.455 413.279 119.146C413.132 118.836 413.017 118.578 412.884 118.296C412.751 118.013 412.621 117.738 412.482 117.459C412.342 117.18 412.213 116.908 412.076 116.636L411.736 115.956C411.548 115.592 411.357 115.232 411.17 114.875C411.058 114.661 410.945 114.45 410.829 114.242C410.69 113.977 410.547 113.719 410.404 113.46C410.063 112.862 409.722 112.27 409.382 111.692C409.279 111.515 409.177 111.352 409.072 111.172C407.485 108.526 405.737 105.98 403.836 103.549C403.686 103.352 403.532 103.158 403.382 102.967C403.175 102.705 402.97 102.45 402.762 102.195C402.555 101.94 402.422 101.774 402.241 101.563C402.061 101.352 401.901 101.145 401.713 100.941C401.407 100.58 401.097 100.223 400.787 99.8731L400.429 99.4753L400.112 99.1353L399.574 98.5538L399.202 98.1594C399.046 97.9962 398.889 97.8194 398.739 97.6698L398.112 97.0339C397.993 96.9115 397.867 96.7891 397.744 96.6701L397.376 96.3063C397.193 96.1227 397.005 95.9458 396.818 95.7656L396.259 95.2386L395.765 94.7762L395.121 94.1947C394.937 94.0281 394.753 93.8547 394.563 93.7017L394.011 93.2223C393.626 92.8822 393.237 92.566 392.846 92.2498L392.358 91.8486C391.677 91.2955 390.981 90.7582 390.27 90.2369C390.131 90.1281 389.987 90.0227 389.844 89.9207C384.606 86.0925 378.861 83.0085 372.773 80.757L372.188 80.5394C371.411 80.2606 370.639 79.9965 369.871 79.7472L369.503 79.6282C368.068 79.1748 366.656 78.7736 365.269 78.4245L364.318 78.1661C363.368 77.9451 362.427 77.7411 361.508 77.5608L361.014 77.469C360.305 77.3364 359.603 77.214 358.915 77.1086C358.574 77.0576 358.234 77.0066 357.917 76.9624C357.137 76.8536 356.377 76.7584 355.631 76.6802L355.29 76.6462C354.388 76.5578 353.519 76.4898 352.674 76.4456L352.299 76.4252C351.959 76.4082 351.662 76.398 351.356 76.3878H351.015C349.37 76.3397 347.723 76.3818 346.082 76.5136C313.174 79.278 299.462 85.6228 282.061 119.299C266.73 102.566 250.74 88.0981 250.74 88.0981C253.707 100.886 246.42 133.202 229.829 142.628C250.995 167.575 294.897 186.052 306.888 172.611C306.319 181.669 305.526 193.899 304.793 205.698C261.944 200.938 241.841 208.442 222.726 217.701C216.485 220.72 210.353 223.927 203.567 226.95C197.829 229.535 191.931 231.754 185.911 233.594C173.67 237.296 158.691 239.996 138.537 240.472C135.149 240.547 131.612 240.562 127.926 240.516C114.299 240.329 102.134 238.748 91.2969 236.018C84.8226 234.407 78.4983 232.245 72.3933 229.558C65.9491 226.728 59.8304 223.211 54.1437 219.068C34.7257 204.852 23.654 185.018 19.1265 164.11C20.6211 164.088 22.0912 163.728 23.4253 163.055C24.7594 162.382 25.9226 161.415 26.8267 160.227C27.7308 159.039 28.352 157.661 28.6434 156.197C28.9348 154.734 28.8887 153.224 28.5085 151.781C28.4778 151.659 28.4438 151.536 28.4063 151.417L54.0858 128.676L54.4674 128.336H55.6733C55.7074 128.449 55.7381 128.561 55.7721 128.676C56.8595 132.339 59.1994 135.505 62.3845 137.622C63.1152 138.094 63.8871 138.499 64.6908 138.833V189.904C64.6908 193.088 65.9581 196.142 68.214 198.394C70.4699 200.645 73.5295 201.91 76.7198 201.91H200.358C203.547 201.909 206.605 200.643 208.86 198.391C211.114 196.14 212.38 193.087 212.38 189.904V100.421C212.38 97.236 211.113 94.1818 208.857 91.9297C206.602 89.6775 203.542 88.4119 200.351 88.411H76.7198C73.5292 88.4119 70.4696 89.6775 68.2138 91.9297C65.958 94.1818 64.6908 97.236 64.6908 100.421V108.119C63.2154 108.736 61.8516 109.59 60.6539 110.648C58.3479 112.687 56.6574 115.327 55.7721 118.272C55.7381 118.384 55.7074 118.496 55.6733 118.612H51.6398C50.5041 118.611 49.4074 119.026 48.5574 119.778C47.7074 120.53 47.163 121.567 47.0272 122.692C47.0071 122.852 46.9958 123.013 46.9931 123.175L30.8898 137.435L26.0353 141.75L22.322 145.035L21.9507 144.909C20.9897 144.613 19.9891 144.465 18.9834 144.47C18.2298 144.469 17.4787 144.556 16.7453 144.729C15.8152 116.082 25.8138 88.0267 42.234 71.8485C71.7562 42.7494 102.955 35.4185 133.41 37.8462C141.36 38.514 149.252 39.74 157.029 41.5151C206.163 52.4978 251.588 81.3453 282.589 74.7319C377.604 54.4563 425.441 70.3456 444.126 110.686C444.395 111.26 444.651 111.835 444.906 112.417C447.435 118.301 449.375 124.421 450.698 130.686C451.083 132.485 451.434 134.253 451.737 135.987C452.296 139.149 452.726 142.209 453.028 145.167C453.457 149.319 453.63 153.494 453.546 157.667Z" fill="#F8F9FC"/><path d="M386.072 87.7376C381.857 85.0394 377.362 82.8016 372.667 81.0629L372.514 81.0051L372.088 80.8487C371.352 80.5835 370.576 80.3183 369.778 80.0599L369.41 79.9408C368.027 79.5022 366.61 79.0976 365.2 78.744C364.88 78.6624 364.556 78.5842 364.239 78.5094C363.272 78.2815 362.331 78.0775 361.442 77.9041L360.952 77.8123C360.223 77.6763 359.521 77.5539 358.863 77.4553C358.523 77.4043 358.182 77.3533 357.872 77.3091C357.095 77.2003 356.329 77.1085 355.593 77.0303L355.252 76.9963C354.373 76.9078 353.498 76.8398 352.646 76.7956L352.271 76.7718C351.951 76.7718 351.641 76.7446 351.335 76.7378H350.994C349.89 76.7106 348.817 76.7174 347.785 76.7582C347.785 76.5304 347.785 76.3026 347.785 76.0782C347.785 68.4311 347.737 61.2532 347.737 61.2532L332.622 61.9333C330.608 56.3739 326.524 50.2399 326.524 50.2399C316.774 50.2399 316.065 39.6278 325.348 37.8257C318.78 36.9926 317.854 32.3445 326.524 30.5424C336.979 28.3731 346.79 31.9501 346.79 31.9501C346.79 31.9501 353.603 30.5288 358.771 35.4659C363.939 40.4031 363.295 46.6085 362.12 51.0049C362.12 51.0049 363.905 55.0376 363.823 55.1362C363.742 55.2348 362.88 61.7326 366.889 64.9561C370.899 68.1795 375.502 68.4923 376.701 74.9833C377.747 80.6617 379.341 80.4237 381.399 80.9643C383.102 81.3995 385.599 82.8344 386.018 86.8909C386.045 87.1595 386.066 87.4417 386.072 87.7376Z" fill="#181B31"/><path d="M453.4 161.183C451.489 165.579 449.005 170.455 446.389 175.249C439.32 188.17 431.26 200.533 430.742 201.322C431.239 200.69 437.31 193.032 444.519 190.911C444.498 190.999 444.478 191.088 444.451 191.176C436.227 204.437 423.176 212.553 408.428 216.443C408.428 215.841 408.401 215.239 408.384 214.644C408.384 214.304 408.364 214.005 408.357 213.685C408.309 212.074 408.255 210.482 408.193 208.925C408.193 208.551 408.163 208.177 408.146 207.813V207.585C408.125 207.109 408.105 206.64 408.084 206.174C408.037 205.093 407.985 204.032 407.934 203.005C407.916 202.658 407.899 202.318 407.883 201.985C407.87 201.718 407.856 201.453 407.842 201.19C407.842 200.955 407.819 200.72 407.805 200.489C407.788 200.149 407.767 199.84 407.754 199.52C407.74 199.2 407.716 198.888 407.699 198.575C407.699 198.418 407.679 198.262 407.672 198.109L407.641 197.568C407.641 197.446 407.624 197.32 407.621 197.201C407.618 197.082 407.601 196.902 407.594 196.756C407.512 195.453 407.437 194.236 407.365 193.121C407.365 192.975 407.345 192.828 407.335 192.682C407.335 192.434 407.301 192.196 407.287 191.958L407.628 191.812C412.234 189.755 416.26 187.575 419.323 185.385C419.166 190.36 418.955 194.722 418.788 197.81C418.992 194.685 419.313 190.231 419.769 185.059C422.495 183.043 424.402 181.019 425.169 179.085C426.29 176.252 425.659 165.698 423.615 153.903C426.15 139.176 429.775 126.864 434.793 127.01C435.234 127.022 435.665 127.144 436.047 127.363C436.429 127.583 436.751 127.894 436.983 128.268C437.334 128.799 437.598 129.382 437.763 129.996C441.664 143.291 424.818 196.64 423.234 201.601C424.494 197.956 434.799 168.479 444.587 153.569C447.534 149.068 450.439 145.895 453.032 145.161C453.583 144.992 454.166 144.952 454.735 145.045C458.684 145.746 457.154 152.539 453.4 161.183Z" fill="#004F92"/><path d="M428.634 199.748L427.986 199.534C429.88 193.597 446.382 141.148 442.543 128.047C442.389 127.469 442.141 126.918 441.811 126.419C441.609 126.087 441.327 125.811 440.991 125.616C440.654 125.421 440.275 125.314 439.886 125.303L439.906 124.623C440.401 124.637 440.885 124.772 441.315 125.018C441.745 125.263 442.107 125.612 442.369 126.031C442.742 126.59 443.022 127.205 443.197 127.854C446.12 137.82 437.545 169.89 432.269 187.837C436.466 176.888 443.074 160.975 449.404 151.339C452.661 146.364 455.567 143.488 458.04 142.787C458.646 142.602 459.286 142.561 459.91 142.665C460.35 142.726 460.768 142.891 461.131 143.146C461.495 143.401 461.792 143.738 461.999 144.13C463.266 146.483 462.23 151.434 458.827 159.268C457.096 163.253 454.739 167.997 451.802 173.362C446.853 182.417 441.47 191.111 438.455 195.861C441.037 193.257 445.078 189.846 449.537 188.537L450.092 188.374L449.966 188.939C449.946 189.037 449.922 189.129 449.895 189.224L449.724 189.173C442.747 191.213 436.779 198.629 436.121 199.466L435.57 199.071C436.438 197.745 444.25 185.742 451.199 173.022C454.119 167.67 456.473 162.947 458.197 158.983C461.464 151.458 462.54 146.565 461.392 144.436C461.234 144.135 461.005 143.876 460.725 143.681C460.445 143.486 460.123 143.362 459.784 143.318C459.262 143.232 458.727 143.268 458.221 143.423C455.907 144.079 453.131 146.861 449.966 151.696C440.223 166.572 429.792 196.395 428.634 199.748Z" fill="#1A1D4E"/><path d="M317.649 230.935C312.693 229.268 307.933 227.069 303.453 224.376L303.279 224.271L303.961 213.794L304.642 213.839L304.002 223.907C308.387 226.519 313.04 228.656 317.88 230.282L317.649 230.935Z" fill="#1A1D4E"/><path d="M355.801 236.855C347.193 236.875 338.604 236.029 330.166 234.328L330.302 233.648C356.919 239.112 386.737 235.688 408.182 224.678C408.182 223.969 408.182 223.258 408.182 222.546C408.182 222.298 408.182 222.05 408.182 221.809C408.182 220.746 408.168 219.685 408.138 218.626C408.138 218.286 408.138 217.922 408.118 217.569C408.099 216.583 408.076 215.606 408.046 214.638L408.019 213.716C407.971 212.07 407.917 210.483 407.855 208.925L407.801 207.589C407.784 207.113 407.76 206.644 407.739 206.181L408.421 206.151C408.441 206.616 408.465 207.089 408.482 207.565L408.537 208.901C408.598 210.459 408.652 212.05 408.7 213.662L408.727 214.617C408.755 215.587 408.778 216.566 408.799 217.552C408.799 217.892 408.799 218.255 408.819 218.612C408.84 219.671 408.855 220.734 408.864 221.802C408.864 222.047 408.864 222.298 408.864 222.543C408.864 223.322 408.864 224.104 408.864 224.886V225.093L408.68 225.188C397.843 230.778 384.581 234.539 370.327 236.069C365.503 236.589 360.654 236.851 355.801 236.855Z" fill="#1A1D4E"/><path d="M408.173 201.176L407.832 201.193H407.492L407.454 200.493C407.437 200.153 407.417 199.843 407.403 199.523L407.291 197.572C407.291 197.46 407.291 197.337 407.27 197.232L407.243 196.776C407.165 195.474 407.086 194.257 407.015 193.145L406.984 192.703L406.943 192.104L407.284 191.958L407.625 191.812C407.625 191.853 407.625 191.897 407.625 191.938L407.672 192.662C407.672 192.805 407.672 192.947 407.703 193.094C407.775 194.216 407.85 195.433 407.928 196.735L407.955 197.177C407.955 197.313 407.955 197.429 407.979 197.545L408.091 199.5C408.091 199.84 408.122 200.142 408.143 200.469L408.173 201.176Z" fill="#1A1D4E"/><path d="M303.97 224.121L303.289 224.076C303.855 215.192 304.536 204.495 305.18 194.338L305.861 194.382C305.217 204.535 304.536 215.233 303.97 224.121Z" fill="#1A1D4E"/><path d="M306.529 173.005C306.788 172.74 307.034 172.462 307.264 172.172C307.037 175.946 306.751 180.486 306.406 185.79L305.725 185.746C306.033 180.85 306.301 176.603 306.529 173.005Z" fill="#1A1D4E"/><path d="M415.457 123.426L414.823 123.681L414.745 123.484C414.649 123.25 414.557 123.018 414.462 122.787C414.339 122.485 414.217 122.189 414.091 121.896C413.965 121.604 413.845 121.311 413.716 121.022C413.587 120.733 413.491 120.502 413.375 120.244C413.236 119.924 413.096 119.615 412.953 119.305C412.81 118.996 412.694 118.738 412.561 118.459L412.163 117.626C412.026 117.35 411.893 117.078 411.757 116.806L411.512 116.32L411.406 116.109C411.222 115.749 411.035 115.388 410.848 115.031C410.732 114.814 410.623 114.61 410.507 114.406C410.391 114.202 410.268 113.967 410.149 113.753L410.078 113.624C409.809 113.137 409.447 112.498 409.056 111.866C408.957 111.699 408.861 111.526 408.763 111.369C407.186 108.728 405.45 106.186 403.564 103.756C403.414 103.559 403.264 103.365 403.114 103.178C402.92 102.933 402.726 102.695 402.532 102.457L402.494 102.41C402.324 102.202 402.154 101.991 401.98 101.784C401.806 101.577 401.639 101.366 401.455 101.162C401.149 100.801 400.84 100.448 400.529 100.101C400.41 99.9615 400.294 99.8357 400.188 99.7031C400.082 99.5705 399.977 99.4684 399.871 99.363C399.694 99.1658 399.531 98.9754 399.336 98.7816L399.296 98.7408L398.955 98.4008L398.488 97.9111C398.284 97.7003 398.073 97.4895 397.868 97.2821C397.786 97.1982 397.705 97.1166 397.623 97.0373L397.136 96.5545L396.584 96.0206L396.206 95.6636L396.022 95.4902L395.545 95.0448L394.891 94.4531C394.771 94.3443 394.645 94.2355 394.523 94.1301L394.182 93.8173L393.804 93.4773C393.419 93.1372 393.031 92.821 392.642 92.5048L392.223 92.1648L392.155 92.1104C391.433 91.5289 390.752 91.0053 390.08 90.5055L390.05 90.4817L389.655 90.1926C388.486 89.3392 387.294 88.5197 386.071 87.7445C381.855 85.0463 377.361 82.8086 372.666 81.0698L372.512 81.012L372.086 80.8556C371.351 80.5904 370.574 80.3252 369.777 80.0668L369.409 79.9478C368.026 79.5091 366.608 79.1045 365.198 78.7509C364.878 78.6693 364.554 78.5911 364.237 78.5163C363.27 78.2885 362.33 78.0844 361.441 77.911L360.95 77.8192C360.221 77.6832 359.519 77.5608 358.862 77.4622C358.521 77.4112 358.18 77.3602 357.87 77.316C357.094 77.2072 356.327 77.1154 355.591 77.0372L355.251 77.0032C354.372 76.9148 353.496 76.8468 352.645 76.8026L352.27 76.7788C351.95 76.7788 351.64 76.7516 351.333 76.7448H350.992C349.889 76.7176 348.815 76.7244 347.783 76.7652C347.207 76.789 346.645 76.823 346.1 76.8672C313.396 79.6111 299.695 85.888 282.293 119.581L281.803 119.044C299.293 85.2623 313.144 78.9549 346.042 76.2007C346.604 76.1531 347.187 76.1191 347.78 76.0953C348.819 76.0545 349.902 76.0477 351.013 76.0749H351.353C351.667 76.0749 351.98 76.0953 352.304 76.1123L352.682 76.1327C353.547 76.1803 354.433 76.2483 355.315 76.3367L355.656 76.3707C356.402 76.4489 357.175 76.5441 357.956 76.6529C358.296 76.6971 358.637 76.7482 358.957 76.7992C359.638 76.9012 360.32 77.0236 361.069 77.1596L361.567 77.2548C362.459 77.4282 363.41 77.6356 364.387 77.8634L365.358 78.1014C366.782 78.4415 368.213 78.8665 369.613 79.3119L369.981 79.4309C370.785 79.6928 371.569 79.958 372.311 80.2266L372.741 80.3864L372.897 80.4442C377.478 82.1435 381.872 84.3084 386.01 86.9046C387.39 87.7751 388.737 88.6909 390.05 89.652C390.182 89.7472 390.314 89.8458 390.448 89.9478L390.479 89.9682C391.16 90.4749 391.842 91.0053 392.578 91.5901L392.646 91.6479L393.068 91.988C393.46 92.3042 393.852 92.634 394.24 92.9672L394.625 93.3072L394.966 93.6201L395.337 93.9601L395.981 94.5415L396.482 95.0074L396.662 95.1808L397.044 95.5412C397.221 95.7078 397.384 95.8812 397.582 96.0614L398.093 96.5647L398.345 96.8163C398.549 97.0237 398.761 97.2345 398.968 97.4521L399.439 97.9417L399.779 98.2818L399.82 98.3226L400.362 98.9108L400.682 99.2508C400.801 99.38 400.921 99.5127 401.04 99.6521C401.353 99.9921 401.663 100.359 401.97 100.72C402.15 100.924 402.31 101.138 402.501 101.349C402.692 101.56 402.842 101.77 403.026 101.981L403.063 102.029C403.257 102.27 403.452 102.508 403.646 102.756C403.799 102.947 403.952 103.141 404.106 103.341C406.001 105.785 407.747 108.341 409.332 110.995L409.645 111.519C410.023 112.158 410.384 112.804 410.667 113.294L410.739 113.423C410.861 113.641 410.98 113.862 411.1 114.083C411.219 114.304 411.321 114.494 411.44 114.705C411.635 115.072 411.822 115.436 412.013 115.803L412.118 116.014L412.364 116.504L412.772 117.33C412.909 117.609 413.041 117.887 413.174 118.17C413.307 118.452 413.437 118.734 413.569 119.02C413.702 119.305 413.856 119.645 413.995 119.965C414.115 120.223 414.23 120.489 414.336 120.754C414.442 121.019 414.588 121.335 414.714 121.634C414.84 121.934 414.963 122.226 415.085 122.529C415.181 122.757 415.276 122.995 415.372 123.233L415.457 123.426Z" fill="#1A1D4E"/><path d="M348.689 131.594L329.922 102.206L335.488 95.4834L326.736 92.6952L332.746 83.9737L333.308 84.3579L327.816 92.3246L336.657 95.1434L330.763 102.257L348.658 130.281L365.354 101.284L358.459 93.9295L367.586 89.6792L359.505 83.3446L359.928 82.8108L368.877 89.8288L359.597 94.1505L366.196 101.186L366.07 101.407L348.689 131.594Z" fill="#1A1D4E"/><path d="M339.74 79.6996C339.74 79.6996 345.651 108.904 347.272 114.569C347.272 114.569 355.578 83.2868 355.789 79.0705C355.803 79.0705 347.095 71.8893 339.74 79.6996Z" fill="#181B31"/><path d="M326.14 166.745L324.9 166.167C324.9 166.167 315.453 163.032 316.329 161.21C316.782 160.268 320.74 159.51 324.484 158.979L326.14 166.745Z" fill="#004F92"/><path d="M393.014 197.317C392.704 198.129 392.195 198.85 391.534 199.415C390.873 199.98 390.08 200.37 389.229 200.55L345.783 209.775C344.432 210.061 343.022 209.8 341.863 209.049C340.704 208.298 339.891 207.119 339.604 205.77L337.355 195.229L330.477 162.961L325.122 137.833C324.979 137.166 324.97 136.476 325.095 135.805C325.22 135.134 325.476 134.493 325.848 133.921C326.221 133.348 326.703 132.855 327.267 132.468C327.831 132.082 328.466 131.81 329.135 131.669L372.577 122.444C373.246 122.301 373.937 122.292 374.61 122.416C375.283 122.54 375.925 122.795 376.499 123.168C377.073 123.54 377.568 124.021 377.955 124.584C378.343 125.147 378.615 125.781 378.757 126.449L383.771 149.979C368.809 153.852 354.011 158.01 349.302 159.347L347.763 159.772C349.875 167.446 353.077 180.482 355.567 191.033C356.811 196.304 357.874 200.955 358.535 204.012C368.325 203.723 381.182 201.088 393.014 197.317Z" fill="#EEF6FF"/><path d="M338.742 207.252C337.52 207.249 336.336 206.827 335.387 206.058C334.438 205.289 333.781 204.219 333.527 203.026L322.135 149.571L322.816 149.428L334.208 202.873C334.335 203.47 334.579 204.037 334.926 204.541C335.272 205.045 335.715 205.475 336.229 205.808C336.742 206.141 337.316 206.369 337.918 206.481C338.52 206.592 339.138 206.584 339.737 206.457L353.779 203.475L353.922 204.155L339.88 207.137C339.506 207.215 339.125 207.254 338.742 207.252Z" fill="#1A1D4E"/><path d="M379.308 151.485L378.651 151.658L378.508 150.978L372.604 123.273C372.476 122.676 372.232 122.109 371.885 121.606C371.539 121.103 371.096 120.673 370.582 120.34C370.069 120.008 369.495 119.779 368.893 119.668C368.291 119.557 367.673 119.566 367.075 119.693L323.224 129.003C322.625 129.13 322.057 129.373 321.553 129.719C321.048 130.065 320.617 130.507 320.283 131.019C319.95 131.532 319.721 132.105 319.609 132.706C319.498 133.307 319.506 133.924 319.634 134.521L320.894 140.434L320.213 140.577L318.952 134.664C318.805 133.979 318.795 133.271 318.923 132.582C319.05 131.893 319.312 131.236 319.695 130.648C320.077 130.06 320.572 129.554 321.15 129.157C321.729 128.76 322.381 128.481 323.067 128.336L366.915 119.026C367.601 118.88 368.31 118.871 369 118.998C369.69 119.125 370.348 119.387 370.936 119.769C371.525 120.15 372.032 120.644 372.429 121.221C372.827 121.799 373.106 122.449 373.251 123.134L379.152 150.805L379.308 151.485Z" fill="#1A1D4E"/><path d="M346.649 125.505C348.744 125.057 350.04 122.823 349.545 120.515C349.049 118.207 346.95 116.699 344.855 117.147C342.76 117.595 341.464 119.829 341.96 122.137C342.455 124.445 344.555 125.953 346.649 125.505Z" fill="#EEF6FF"/><path d="M344.76 126.449C342.777 126.449 340.954 124.926 340.488 122.736C340.228 121.57 340.413 120.35 341.005 119.312C341.282 118.819 341.661 118.39 342.116 118.054C342.571 117.717 343.092 117.481 343.646 117.36C345.914 116.878 348.194 118.506 348.722 120.988C349.25 123.471 347.832 125.881 345.564 126.364C345.299 126.421 345.03 126.449 344.76 126.449ZM344.45 117.949C344.226 117.949 344.004 117.973 343.785 118.02C343.326 118.122 342.893 118.319 342.515 118.6C342.138 118.881 341.824 119.238 341.595 119.649C341.087 120.541 340.931 121.589 341.155 122.59C341.605 124.705 343.54 126.096 345.424 125.694C347.308 125.293 348.507 123.239 348.057 121.124C347.655 119.254 346.116 117.949 344.45 117.949Z" fill="#1A1D4E"/><path d="M353.019 118.822L335.692 122.501C334.367 122.782 333.521 124.082 333.803 125.405L334.614 129.21C334.896 130.532 336.199 131.376 337.524 131.095L354.851 127.416C356.176 127.134 357.021 125.834 356.74 124.512L355.929 120.707C355.647 119.384 354.344 118.54 353.019 118.822Z" fill="#1A1D4E"/><path d="M347.762 159.771C349.874 167.446 353.076 180.482 355.566 191.033L351.032 192.128C350.32 192.298 349.588 192.468 348.842 192.648C345.094 193.536 340.972 194.471 337.337 195.219C332.657 196.181 328.78 196.827 327.523 196.644C323.622 196.069 323.125 192.692 322.709 190.469C322.662 190.223 322.574 189.986 322.45 189.768C321.503 188.068 318.577 187.218 317.964 184.362C317.282 181.142 320.542 178.388 317.282 176.671C314.022 174.953 311.6 168.884 315.756 166.728C317.517 165.814 323.803 164.348 330.466 162.951C336.775 161.631 343.411 160.387 346.869 159.748C348.378 159.465 349.281 159.306 349.281 159.306V159.333L347.762 159.771Z" fill="#F6D9AD"/><path d="M327.492 196.98C323.476 196.388 322.849 192.995 322.433 190.751L322.393 190.53C322.352 190.321 322.277 190.12 322.171 189.935C321.83 189.333 321.193 188.816 320.512 188.272C319.357 187.347 318.049 186.3 317.647 184.433C317.354 183.073 317.722 181.808 318.042 180.693C318.533 178.993 318.856 177.878 317.129 176.97C314.925 175.804 313.208 172.913 313.218 170.387C313.196 169.569 313.409 168.762 313.831 168.06C314.254 167.359 314.869 166.793 315.603 166.429C316.625 165.895 319.109 165.168 323.169 164.209L323.326 164.872C319.374 165.803 316.881 166.531 315.917 167.031C315.291 167.337 314.768 167.817 314.409 168.413C314.051 169.009 313.873 169.696 313.896 170.39C313.896 172.648 315.48 175.331 317.446 176.371C319.664 177.538 319.17 179.238 318.693 180.883C318.376 181.972 318.052 183.1 318.308 184.284C318.649 185.916 319.817 186.841 320.935 187.735C321.667 188.323 322.362 188.877 322.76 189.595C322.902 189.844 323.003 190.115 323.057 190.397L323.098 190.622C323.5 192.798 324.052 195.78 327.584 196.3L327.492 196.98Z" fill="#1A1D4E"/><path d="M355.567 191.03L351.033 192.128L346.863 159.748C348.372 159.465 349.275 159.306 349.275 159.306V159.333L347.763 159.771C349.875 167.442 353.077 180.479 355.567 191.03Z" fill="#1A1D4E"/><path d="M323.185 176.297L318.434 177.37L318.584 178.034L323.335 176.961L323.185 176.297Z" fill="#1A1D4E"/><path d="M327.249 188.41L322.385 189.463L322.529 190.127L327.393 189.075L327.249 188.41Z" fill="#1A1D4E"/><path d="M357.106 56.2415C356.847 57.3738 355.788 79.0706 355.788 79.0706C354.084 83.7357 343.152 84.8068 339.742 79.6997C339.715 79.2134 339.691 77.8941 339.667 76.5103C339.633 74.5211 339.61 72.396 339.61 72.396C326.497 71.5221 323.131 56.4149 324.518 48.1966C328.947 49.2915 337.143 46.7753 338.209 40.6311C337.187 46.7175 341.694 47.1833 345.254 41.2193C344.41 47.9892 352.902 51.2228 355.924 49.6587C356.875 46.0511 364.25 46.0341 364.846 51.539C365.292 55.7043 360.911 58.3871 357.106 56.2415Z" fill="#F6D9AD"/><path d="M349.146 70.2947C349.088 70.4613 347.347 75.242 339.661 76.5137C339.627 74.5246 339.604 72.3994 339.604 72.3994C339.604 72.3994 346.39 72.2974 349.146 70.2947Z" fill="#1A1D4E"/><path d="M327.347 60.8896C326.193 60.88 325.085 60.4427 324.237 59.6628C323.389 58.883 322.862 57.8162 322.758 56.6699C322.758 56.5407 322.758 56.4093 322.758 56.2755H323.439C323.439 56.3877 323.439 56.4999 323.439 56.6155C323.519 57.546 323.929 58.4176 324.594 59.0745C325.259 59.7315 326.136 60.1308 327.069 60.2012C328.002 60.2716 328.93 60.0084 329.686 59.4588C330.443 58.9091 330.978 58.1088 331.198 57.2009C331.417 56.2931 331.306 55.3369 330.884 54.5035C330.462 53.6701 329.756 53.0137 328.894 52.6517C328.031 52.2898 327.068 52.246 326.176 52.528C325.284 52.81 324.521 53.3996 324.025 54.1912L323.449 53.8308C323.877 53.1507 324.474 52.5937 325.183 52.2147C325.892 51.8358 326.688 51.648 327.492 51.6699C328.296 51.6919 329.08 51.9228 329.768 52.3399C330.455 52.757 331.021 53.3458 331.41 54.0481C331.8 54.7505 331.999 55.5421 331.988 56.3447C331.977 57.1474 331.757 57.9334 331.348 58.6249C330.94 59.3165 330.358 59.8898 329.66 60.2882C328.962 60.6865 328.171 60.8962 327.367 60.8964L327.347 60.8896Z" fill="#1A1D4E"/><path d="M340.516 59.3287C339.182 59.3269 337.903 58.7972 336.96 57.8558C336.017 56.9143 335.486 55.638 335.484 54.3066C335.483 53.5339 335.661 52.7714 336.006 52.0794L336.615 52.3821C336.318 52.98 336.164 53.6389 336.166 54.3066C336.165 55.264 336.481 56.1948 337.066 56.9542C337.65 57.7136 338.469 58.259 339.396 58.5055C340.323 58.7521 341.305 58.6859 342.191 58.3174C343.076 57.9489 343.814 57.2986 344.291 56.4678C344.768 55.637 344.956 54.6722 344.827 53.7236C344.697 52.7749 344.257 51.8956 343.575 51.2224C342.893 50.5492 342.007 50.1199 341.055 50.0013C340.103 49.8826 339.139 50.0813 338.312 50.5663L337.971 49.9815C338.638 49.5911 339.386 49.3593 340.157 49.3041C340.928 49.2489 341.701 49.3718 342.417 49.6631C343.133 49.9545 343.772 50.4065 344.284 50.9842C344.797 51.5619 345.169 52.2496 345.372 52.9941C345.575 53.7385 345.604 54.5197 345.455 55.2769C345.307 56.0341 344.986 56.747 344.517 57.3603C344.048 57.9737 343.444 58.4709 342.751 58.8134C342.058 59.156 341.296 59.3346 340.523 59.3355L340.516 59.3287Z" fill="#1A1D4E"/><path d="M338.384 56.1495C338.976 56.1495 339.457 55.6699 339.457 55.0784C339.457 54.4869 338.976 54.0073 338.384 54.0073C337.791 54.0073 337.311 54.4869 337.311 55.0784C337.311 55.6699 337.791 56.1495 338.384 56.1495Z" fill="#1A1D4E"/><path d="M327.278 57.7137C327.871 57.7137 328.351 57.2341 328.351 56.6426C328.351 56.0511 327.871 55.5715 327.278 55.5715C326.686 55.5715 326.205 56.0511 326.205 56.6426C326.205 57.2341 326.686 57.7137 327.278 57.7137Z" fill="#1A1D4E"/><path d="M335.576 62.8109C334.897 62.799 334.233 62.6136 333.647 62.2725C333.061 61.9314 332.572 61.446 332.227 60.8626L332.108 60.6348L332.295 60.4579C334.472 58.3804 333.999 54.1675 332.118 51.7874C330.439 49.6622 328.051 49.363 325.567 50.9611L325.199 50.3899C327.972 48.6048 330.759 48.9686 332.653 51.3657C334.656 53.9023 335.174 58.3702 332.963 60.7504C333.362 61.3182 334.666 62.7905 337.184 61.7942L337.436 62.4267C336.846 62.6713 336.215 62.8017 335.576 62.8109Z" fill="#1A1D4E"/><path d="M345.056 49.577C344.584 48.9225 343.969 48.3833 343.258 47.9999C342.548 47.6165 341.759 47.3989 340.951 47.3634C340.046 47.3078 339.14 47.4521 338.296 47.7859C337.453 48.1197 336.694 48.6349 336.073 49.2948L335.572 48.8323C336.262 48.0991 337.106 47.5265 338.042 47.1551C338.979 46.7837 339.986 46.6227 340.992 46.6834C341.901 46.7244 342.788 46.9703 343.587 47.4025C344.387 47.8348 345.078 48.4422 345.608 49.1792L345.056 49.577Z" fill="#1A1D4E"/><path d="M358.327 52.3244L357.717 52.0184C358.046 51.422 358.546 50.9371 359.153 50.6258C359.76 50.3145 360.446 50.1908 361.123 50.2707C361.64 50.2999 362.134 50.4907 362.536 50.816C362.938 51.1413 363.227 51.5846 363.362 52.083L362.704 52.2564C362.604 51.8911 362.39 51.5671 362.093 51.3316C361.796 51.0961 361.431 50.9615 361.052 50.9473C360.513 50.8867 359.967 50.9847 359.483 51.2294C358.999 51.474 358.597 51.8547 358.327 52.3244Z" fill="#1A1D4E"/><path d="M341.834 62.7053C343.228 67.299 338.376 68.4857 336.322 65.1399C338.261 65.2215 340.673 64.3782 341.834 62.7053Z" fill="white"/><path d="M251.343 97.0339C251.207 99.808 250.899 102.571 250.42 105.307C249.89 108.394 249.181 111.448 248.297 114.453C244.891 126.065 238.684 137.602 229.837 142.628C228.106 141.964 231.199 123.814 234.974 109.373C235.988 105.347 237.206 101.375 238.622 97.4726C239.866 94.1947 241.041 92.0322 242.005 91.7466H242.05C243.106 91.4882 244.676 92.1172 246.478 93.2665C248.192 94.3983 249.819 95.6577 251.343 97.0339Z" fill="#1A1D4E"/><path d="M388.05 149.231L387.709 149.313C385.042 149.993 382.225 150.72 379.285 151.495L378.627 151.669C376.227 152.301 373.751 152.961 371.201 153.648L371.023 152.992C373.583 152.312 376.07 151.649 378.484 151.002L379.145 150.829C381.957 150.092 384.647 149.395 387.215 148.738C386.817 147.109 385.059 139.687 383.955 131.971L384.636 131.873C385.873 140.533 387.941 148.82 387.961 148.901L388.05 149.231Z" fill="#1A1D4E"/><path d="M358.259 204.355L358.197 204.08C356.17 194.705 350.543 171.162 347.432 159.856L347.344 159.516L347.684 159.425C347.753 159.404 354.668 157.429 364.101 154.848L364.282 155.504C356.004 157.769 349.667 159.567 348.199 159.986C351.299 171.308 356.767 194.171 358.824 203.645C364.616 203.451 371.695 202.431 379.322 200.69L379.475 201.353C371.678 203.131 364.445 204.161 358.562 204.331L358.259 204.355Z" fill="#1A1D4E"/><path d="M387.699 199.265L387.512 198.612C405.366 193.569 419.637 186.538 423.864 180.693L424.416 181.091C420.103 187.051 405.69 194.185 387.699 199.265Z" fill="#1A1D4E"/><path d="M426.007 175.732L425.326 175.702C425.741 166.572 422.519 143.576 416.52 128.326L417.153 128.078C423.186 143.406 426.426 166.541 426.007 175.732Z" fill="#1A1D4E"/><path d="M395.405 146.625L387.547 148.684L387.72 149.342L395.578 147.283L395.405 146.625Z" fill="#1A1D4E"/><path d="M331.559 54.8304L331.059 54.3679C331.493 53.9407 332.009 53.6055 332.576 53.3823C333.144 53.1591 333.75 53.0525 334.36 53.069C334.897 53.0678 335.432 53.1504 335.944 53.3139L336.22 53.4023L336.175 53.6879H335.835L335.75 53.9497C335.309 53.8097 334.849 53.7386 334.387 53.7389C333.866 53.7197 333.347 53.8066 332.861 53.9943C332.375 54.1819 331.932 54.4664 331.559 54.8304Z" fill="#1A1D4E"/><path d="M251.366 88.6625L250.787 88.1355C250.992 88.3055 251.182 88.4789 251.366 88.6625Z" fill="#70D9FE"/><path d="M251.394 94.9123C251.394 95.5923 251.377 96.2996 251.343 97.034C251.207 99.8081 250.899 102.571 250.42 105.307C249.89 108.394 249.181 111.448 248.297 114.453C245.49 113.244 242.576 112.298 239.593 111.628C238.169 111.332 236.602 110.492 234.974 109.373C230.603 106.378 225.81 101.386 222.226 99.5366C219.841 98.3091 215.896 97.3979 212.248 96.6022L211.481 96.4322C211.179 95.5207 210.76 94.6521 210.235 93.848C210.071 93.5964 209.894 93.3516 209.713 93.117C208.766 91.8888 207.573 90.87 206.211 90.1248C204.563 89.2251 202.714 88.7572 200.836 88.7647H196.407C196.404 88.5287 196.48 88.2986 196.625 88.1119L196.649 88.0847C196.884 87.8466 197.62 87.7004 198.587 87.6256C193.525 85.4767 192.966 83.0353 193.576 82.3825C194.186 81.7296 197.804 81.5494 201.319 81.4678C201.139 80.5464 201.401 79.8153 201.626 79.5909C202.471 78.7476 234.838 78.3226 236.616 78.6626C238.394 79.0027 245.981 84.1472 250.733 88.1119C251.208 90.3468 251.43 92.6279 251.394 94.9123Z" fill="#F6D9AD"/><path d="M348.03 87.6868C346.28 87.7015 344.575 87.1291 343.189 86.0615L343.622 85.5378C345.727 87.272 349.86 87.6732 351.832 85.5684L352.33 86.0343C351.253 87.1768 349.669 87.6868 348.03 87.6868Z" fill="#1A1D4E"/><path d="M270.111 107.252C259.431 96.4356 250.604 88.4281 250.516 88.3465L250.972 87.8433C251.061 87.9215 259.901 95.9426 270.595 106.772L270.111 107.252Z" fill="#1A1D4E"/><path d="M241.951 154.79C237.465 151.2 233.322 147.201 229.578 142.845L230.099 142.406C233.816 146.73 237.927 150.7 242.38 154.263L241.951 154.79Z" fill="#1A1D4E"/><path d="M294.139 177.453C281.674 177.453 264.219 170.373 249.754 160.557L250.139 159.996C260.901 167.3 272.991 172.917 283.313 175.361C294.306 177.983 302.595 176.922 306.649 172.373L307.156 172.825C304.285 176.052 299.706 177.453 294.139 177.453Z" fill="#1A1D4E"/><path d="M290.232 129.051C286.825 125.042 282.976 120.727 278.762 116.235L279.259 115.769C283.48 120.271 287.347 124.593 290.75 128.612L290.232 129.051Z" fill="#1A1D4E"/><path d="M275.384 112.671C262.473 99.1964 250.635 88.4551 250.516 88.3497L250.972 87.8464C251.091 87.9518 262.947 98.7101 275.875 112.202L275.384 112.671Z" fill="#1A1D4E"/><path d="M308.404 148.463L306.488 173.487L307.168 173.538L309.084 148.514L308.404 148.463Z" fill="#1A1D4E"/><path d="M226.117 89.5873L222.898 87.4486C206.45 88.319 202.287 84.6366 201.272 82.3482C200.662 80.9881 200.989 79.7369 201.402 79.3254L201.882 79.8049C201.729 79.9579 201.357 80.8725 201.882 82.0694C202.829 84.1912 206.828 87.6186 222.962 86.7481H223.075L226.482 89.0093L226.117 89.5873Z" fill="#1A1D4E"/><path d="M233.953 99.6319C231.664 98.9307 229.552 97.7468 227.76 96.1603C226.506 96.2351 217.976 96.6159 215.636 93.2157C215.51 93.0548 215.431 92.862 215.409 92.6589C215.387 92.4559 215.422 92.2507 215.51 92.0664C216.501 89.9991 225.474 88.8906 232.829 88.3262L232.88 89.0062C223.032 89.7611 216.767 91.0157 216.123 92.3622C216.086 92.4392 216.074 92.5253 216.086 92.6094C216.099 92.6936 216.137 92.7721 216.194 92.8349C218.45 96.1127 227.757 95.487 227.849 95.4802H227.988L228.094 95.572C229.835 97.1372 231.898 98.3045 234.137 98.9927L233.953 99.6319Z" fill="#1A1D4E"/><path d="M217.637 90.6856L217.603 91.3656C214.361 91.214 211.128 90.894 207.918 90.4067C207.326 90.3149 206.76 90.2163 206.215 90.1177C204.567 89.2181 202.717 88.7501 200.839 88.7576H200.655C199.974 88.531 199.352 88.3043 198.788 88.0776C194.728 86.4217 193.566 84.6298 193.239 83.8273C192.96 83.1473 193 82.5148 193.344 82.1272L193.842 82.5896C193.716 82.7256 193.675 83.0793 193.869 83.5553C194.118 84.1639 195.341 86.2755 200.774 88.0606C202.63 88.6574 204.524 89.1266 206.443 89.4649C210.144 90.1118 213.884 90.5196 217.637 90.6856Z" fill="#1A1D4E"/><path d="M216.748 93.6576L216.71 94.3376C214.939 94.2424 213.055 94.103 211.082 93.9296L210.234 93.8514C210.071 93.5998 209.893 93.355 209.713 93.1204L210.616 93.202C212.772 93.3992 214.826 93.5522 216.748 93.6576Z" fill="#1A1D4E"/><path d="M26.0358 141.75L26.2606 142.002L22.6802 145.174C22.5644 145.123 22.4417 145.079 22.3225 145.035L21.9512 144.909L25.8075 141.509L26.0358 141.75Z" fill="#1A1D4E"/><path d="M30.8909 137.449L30.666 137.194L47.0181 122.706C46.998 122.866 46.9866 123.027 46.984 123.188V123.647L31.1089 137.704L30.8909 137.449Z" fill="#1A1D4E"/><path d="M54.9935 128.35L28.5203 151.791C28.4896 151.669 28.4555 151.546 28.4181 151.427C28.3806 151.308 28.3431 151.193 28.2988 151.087L53.9647 128.36L54.9935 128.35Z" fill="#1A1D4E"/><path d="M55.5822 118.952H53.4258V118.272H55.773C55.7389 118.384 55.7083 118.496 55.6742 118.612L55.5822 118.952Z" fill="#1A1D4E"/><path d="M55.6745 128.35C55.7086 128.462 55.7392 128.574 55.7733 128.69H51.457V128.01H55.5825C55.6098 128.122 55.6438 128.238 55.6745 128.35Z" fill="#1A1D4E"/><path d="M48.4073 127.599C47.8587 127.15 47.417 126.584 47.1142 125.944C46.8113 125.304 46.6549 124.604 46.6563 123.896V123.049C46.6661 121.785 47.1755 120.576 48.0737 119.684C48.9719 118.793 50.1862 118.291 51.4529 118.289V118.969C50.3661 118.97 49.3236 119.399 48.5523 120.163C47.7809 120.927 47.3432 121.964 47.3342 123.049V123.882C47.3333 124.49 47.4677 125.09 47.7275 125.639C47.9873 126.188 48.3661 126.673 48.8365 127.058L48.4073 127.599Z" fill="#1A1D4E"/><path d="M64.6909 107.748V108.469C63.2991 109.07 62.0113 109.887 60.8755 110.89L60.654 110.638L60.4258 110.38C61.6899 109.27 63.1316 108.381 64.6909 107.748Z" fill="#1A1D4E"/><path d="M62.5725 137.33C63.2438 137.768 63.9529 138.146 64.6915 138.459V139.197C63.8218 138.845 62.9879 138.411 62.2012 137.901L62.3851 137.619L62.5725 137.33Z" fill="#1A1D4E"/><path d="M59.501 135.691C56.347 132.411 54.6067 128.027 54.6533 123.481C54.6335 119.987 55.6493 116.566 57.5728 113.647L58.1417 114.025C56.2921 116.832 55.3155 120.122 55.3346 123.481C55.2849 127.849 56.9518 132.063 59.9779 135.218L59.501 135.691Z" fill="#1A1D4E"/><path d="M183.448 195.433L138.537 189.132L93.6306 195.433C90.4862 208.874 90.6157 225.209 91.297 236.018C102.134 238.738 114.309 240.326 127.922 240.513C131.615 240.565 135.153 240.552 138.537 240.472C158.691 239.993 173.667 237.307 185.917 233.597C186.466 222.866 186.364 207.905 183.448 195.433Z" fill="#181B31"/><path d="M138.541 222.985C133.431 222.985 128.141 221.543 128.141 219.129H128.822C128.822 220.632 132.815 222.305 138.541 222.305C144.268 222.305 148.26 220.632 148.26 219.129H148.942C148.942 221.54 143.651 222.985 138.541 222.985Z" fill="#1A1D4E"/><path d="M76.4543 218.072C76.2261 220.703 74.0049 225.811 72.4038 229.568C72.3288 229.738 72.2573 229.904 72.1891 230.068C71.4124 231.89 70.8265 233.325 70.7481 233.893C70.5165 235.637 70.6289 239.357 70.7481 243.315C70.8674 247.273 67.2529 248.898 67.2529 248.898C67.1336 251.571 64.1051 255.76 62.94 255.294C61.7749 254.828 62.0066 249.36 62.0066 249.36C61.0732 251.224 59.9081 251.805 58.9781 250.989C58.3887 250.476 56.9579 242.149 55.987 236.089C54.4608 237.64 53.0777 237.599 52.519 237.109C51.8615 236.545 52.9653 227.249 54.1576 219.064C54.9991 213.284 55.8882 208.055 56.2221 206.922C56.7228 205.222 60.7121 188.034 64.7047 170.982V189.891C64.7047 193.075 65.972 196.129 68.2279 198.38C70.4837 200.632 73.5434 201.897 76.7337 201.897H77.8613C76.1988 204.09 74.7169 206.218 74.475 207.126C73.8789 209.35 76.795 214.002 76.4543 218.072Z" fill="#F6D9AD"/><path d="M61.993 249.361C63.2739 246.073 62.9298 242.043 61.6523 236.47L63.3557 231.669L61.993 249.361Z" fill="#70D9FE"/><path d="M67.2357 248.895C67.2357 243.672 66.0195 236.555 66.0195 236.555L67.2357 232.268V248.895Z" fill="#70D9FE"/><path d="M63.3594 228.749C63.9692 228.749 67.0045 231.282 72.1793 230.068L63.3594 228.749Z" fill="#70D9FE"/><path d="M53.4181 237.756C53.0083 237.771 52.6067 237.638 52.2871 237.382L52.73 236.865C52.9514 237.052 53.4522 237.188 54.1403 236.943C55.3361 236.521 58.3033 234.515 60.0577 225.018L60.0918 224.825L60.2792 224.76C60.3371 224.74 66.2443 222.591 69.283 213.716L69.9269 213.937C67.0448 222.353 61.7713 224.889 60.6914 225.331C58.8688 235.015 55.6665 237.127 54.3686 237.572C54.0645 237.687 53.7431 237.749 53.4181 237.756Z" fill="#1A1D4E"/><path d="M63.1193 255.658C63.0096 255.658 62.9009 255.637 62.799 255.597C61.777 255.195 61.6237 252.424 61.6271 250.588C61.2748 251.108 60.7461 251.484 60.1384 251.646C59.8893 251.693 59.6327 251.68 59.3893 251.609C59.146 251.538 58.9229 251.411 58.7383 251.238L59.188 250.724C59.2933 250.83 59.4227 250.908 59.565 250.953C59.7074 250.998 59.8585 251.008 60.0056 250.983C60.5609 250.874 61.1741 250.224 61.6885 249.201L62.4005 247.78L62.3323 249.367C62.2267 251.89 62.489 254.747 63.0511 254.971C63.0886 254.971 63.2419 255.019 63.5894 254.794C64.9316 253.931 66.8121 250.843 66.8973 248.874V248.667L67.088 248.582C67.2277 248.517 70.4947 246.991 70.3857 243.318L71.067 243.298C71.1726 246.896 68.3213 248.691 67.5582 249.106C67.3572 251.343 65.4222 254.42 63.9539 255.369C63.7088 255.542 63.4193 255.643 63.1193 255.658Z" fill="#1A1D4E"/><path d="M62.3106 249.486L61.6769 249.242C62.8216 246.3 62.6989 242.625 61.309 236.549L61.2852 236.45L63.0362 231.554L63.6766 231.782L61.9937 236.487C63.4109 242.652 63.5097 246.423 62.3106 249.486Z" fill="#1A1D4E"/><path d="M66.8964 248.898C66.8964 243.76 65.6972 236.684 65.6836 236.613V236.538L66.9168 232.176L67.5709 232.359L66.3751 236.572C66.5046 237.354 67.5709 243.988 67.5845 248.891L66.8964 248.898Z" fill="#1A1D4E"/><path d="M69.4101 230.738C67.5081 230.721 65.6383 230.246 63.9594 229.354C63.7639 229.249 63.5599 229.16 63.3496 229.088V228.408C63.6704 228.46 63.9774 228.576 64.2524 228.748C66.6502 230.038 69.443 230.392 72.0877 229.741L72.2444 230.404C71.3156 230.624 70.3646 230.736 69.4101 230.738Z" fill="#1A1D4E"/><path d="M224.573 237.123C224.015 237.599 222.631 237.64 221.105 236.103C220.134 242.159 218.721 250.489 218.114 251.003C217.184 251.819 216.019 251.237 215.086 249.374C215.086 249.374 215.317 254.842 214.152 255.307C212.987 255.773 209.959 251.577 209.843 248.898C209.843 248.898 206.228 247.269 206.344 243.315C206.46 239.36 206.572 235.637 206.344 233.893C206.269 233.325 205.663 231.89 204.9 230.068C204.494 229.112 204.034 228.048 203.574 226.95C202.212 223.696 200.812 220.129 200.635 218.072C200.294 213.991 203.2 209.35 202.617 207.14C202.379 206.232 200.914 204.104 199.234 201.91H200.359C203.548 201.909 206.606 200.643 208.86 198.391C211.114 196.14 212.381 193.087 212.381 189.904V170.992C216.373 188.048 220.366 205.249 220.867 206.946C221.173 207.987 221.947 212.489 222.727 217.711C223.998 226.164 225.268 236.528 224.573 237.123Z" fill="#F6D9AD"/><path d="M215.087 249.361C213.806 246.073 214.15 242.043 215.428 236.47L213.725 231.669L215.087 249.361Z" fill="#70D9FE"/><path d="M209.844 248.895C209.844 243.672 211.06 236.555 211.06 236.555L209.844 232.268V248.895Z" fill="#70D9FE"/><path d="M213.72 228.749C213.11 228.749 210.075 231.282 204.9 230.068L213.72 228.749Z" fill="#70D9FE"/><path d="M223.663 237.755C223.339 237.752 223.017 237.693 222.713 237.582C221.415 237.123 218.212 235.011 216.39 225.341C215.306 224.899 210.036 222.363 207.154 213.947L207.798 213.726C210.837 222.601 216.744 224.75 216.802 224.77L216.989 224.835L217.027 225.028C218.778 234.522 221.749 236.531 222.944 236.953C223.626 237.198 224.133 237.062 224.355 236.875L224.797 237.392C224.476 237.645 224.073 237.774 223.663 237.755Z" fill="#1A1D4E"/><path d="M213.958 255.658C213.656 255.641 213.365 255.538 213.12 255.362C211.652 254.413 209.713 251.336 209.516 249.099C208.749 248.684 205.901 246.888 206.007 243.291L206.688 243.311C206.579 246.997 209.948 248.558 209.982 248.575L210.173 248.66V248.867C210.258 250.84 212.139 253.924 213.481 254.787C213.822 255.012 213.978 254.978 214.019 254.964C214.581 254.74 214.847 251.887 214.738 249.364L214.67 247.773L215.382 249.197C215.896 250.217 216.506 250.87 217.065 250.979C217.212 251.005 217.363 250.995 217.505 250.95C217.648 250.905 217.777 250.826 217.882 250.72L218.332 251.234C218.148 251.408 217.925 251.537 217.682 251.609C217.439 251.681 217.182 251.695 216.932 251.649C216.324 251.487 215.796 251.111 215.443 250.591C215.443 252.427 215.276 255.195 214.271 255.6C214.171 255.638 214.065 255.658 213.958 255.658Z" fill="#1A1D4E"/><path d="M214.765 249.486C213.573 246.426 213.665 242.655 215.082 236.494L213.402 231.785L214.043 231.557L215.794 236.453L215.77 236.552C214.366 242.628 214.257 246.304 215.402 249.245L214.765 249.486Z" fill="#1A1D4E"/><path d="M210.183 248.898H209.502C209.502 243.995 210.582 237.361 210.711 236.579L209.516 232.366L210.17 232.183L211.406 236.542V236.617C211.382 236.685 210.194 243.757 210.183 248.898Z" fill="#1A1D4E"/><path d="M207.669 230.738C206.711 230.734 205.756 230.62 204.824 230.398L204.981 229.734C207.626 230.386 210.419 230.032 212.816 228.742C213.09 228.569 213.396 228.454 213.716 228.402V229.082C213.505 229.153 213.301 229.242 213.106 229.347C211.432 230.239 209.567 230.716 207.669 230.738Z" fill="#1A1D4E"/><path d="M126.796 46.4524C126.796 46.4524 126.033 35.6023 125.688 32.1714C125.235 27.6457 127.899 23.6709 132.662 26.289C132.662 26.289 133.851 21.9334 140.596 22.4434C147.341 22.9534 157.316 26.0068 161.908 24.5379C161.908 24.5379 161.738 28.4992 159.302 30.0259C161.588 29.9069 163.731 28.7304 164.576 27.8905C164.576 27.8905 164.041 36.6461 154.104 38.7951C144.166 40.944 132.325 49.9444 132.325 49.9444L126.796 46.4524Z" fill="#1A1D4E"/><path d="M127.214 78.5334L127.691 52.4367C123.647 53.9498 117.675 52.9094 118.289 46.9964C118.742 42.6067 125.218 39.3765 128.904 45.2793C128.904 45.2793 133.942 43.7968 133.506 39.2235C133.462 38.744 133.428 38.2884 133.414 37.8634C133.207 32.423 135.21 30.1245 140.03 30.8623C143.972 31.4676 141.849 35.252 156.965 36.0579C156.965 36.0579 157.012 38.2748 157.033 41.5322C157.094 49.8526 156.999 64.9461 155.592 67.1223C153.432 70.4579 146.097 69.9683 146.097 69.9683L146.043 74.749L145.995 78.649C145.995 78.649 177.285 80.5974 185.714 88.4349H91.9551C99.0546 83.2666 110.116 79.2645 127.214 78.5334Z" fill="#F6D9AD"/><path d="M73.0847 75.2624L65.0449 72.5694L71.4018 66.9658L73.0847 75.2624ZM67.048 72.1648L71.7322 73.7459L70.7511 68.9142L67.048 72.1648Z" fill="#004F92"/><path d="M400.311 51.6403L397.396 54.5496L398.119 55.2709L401.034 52.3616L400.311 51.6403Z" fill="white"/><path d="M404.587 47.3688L401.672 50.2781L402.395 50.9994L405.309 48.0901L404.587 47.3688Z" fill="white"/><path d="M398.121 47.3703L397.398 48.0916L400.313 51.0008L401.036 50.2795L398.121 47.3703Z" fill="white"/><path d="M402.396 51.64L401.674 52.3613L404.589 55.2706L405.311 54.5493L402.396 51.64Z" fill="white"/><path d="M22.1003 229.891L19.1855 232.801L19.9082 233.522L22.823 230.613L22.1003 229.891Z" fill="white"/><path d="M26.3737 225.629L23.459 228.538L24.1816 229.26L27.0964 226.35L26.3737 225.629Z" fill="white"/><path d="M19.9063 225.626L19.1836 226.347L22.0983 229.257L22.821 228.535L19.9063 225.626Z" fill="white"/><path d="M24.1816 229.893L23.459 230.615L26.3737 233.524L27.0964 232.803L24.1816 229.893Z" fill="white"/><path d="M79.7656 37.4349L75.623 32.2223L79.7656 27.0098L83.9081 32.2223L79.7656 37.4349ZM76.9278 32.2223L79.7656 35.7925L82.6033 32.2223L79.7656 28.6521L76.9278 32.2223Z" fill="white"/><path d="M235.402 189.323L231.26 184.11L235.402 178.898L239.545 184.11L235.402 189.323ZM232.565 184.11L235.402 187.68L238.24 184.11L235.402 180.54L232.565 184.11Z" fill="#004F92"/><path d="M286.082 221.373L280.086 215.389L288.262 213.199L286.082 221.373ZM282.058 215.933L285.55 219.418L286.828 214.658L282.058 215.933Z" fill="white"/><path d="M436.567 224.886C435.862 224.886 435.173 224.677 434.586 224.287C434 223.896 433.543 223.341 433.272 222.691C433.002 222.041 432.931 221.325 433.068 220.635C433.205 219.945 433.543 219.31 434.041 218.812C434.539 218.314 435.173 217.974 435.865 217.836C436.556 217.697 437.273 217.766 437.925 218.034C438.577 218.302 439.134 218.757 439.527 219.341C439.921 219.925 440.132 220.612 440.134 221.316C440.134 222.261 439.759 223.168 439.09 223.838C438.422 224.507 437.514 224.884 436.567 224.886ZM436.567 218.783C436.063 218.783 435.571 218.932 435.153 219.211C434.734 219.49 434.408 219.886 434.216 220.351C434.023 220.815 433.973 221.325 434.071 221.818C434.169 222.311 434.411 222.763 434.767 223.119C435.123 223.474 435.577 223.716 436.07 223.814C436.564 223.912 437.076 223.861 437.541 223.669C438.006 223.477 438.403 223.151 438.683 222.734C438.962 222.316 439.112 221.825 439.112 221.323C439.111 220.649 438.842 220.004 438.365 219.527C437.888 219.051 437.241 218.783 436.567 218.783Z" fill="white"/><path d="M288.589 44.8846L286.552 27.8325L284.511 44.8846L273.412 45.9659L284.511 47.0438L286.552 64.0993L288.589 47.0438L299.688 45.9659L288.589 44.8846Z" fill="white"/><path d="M21.0224 116.575L18.9852 99.5229L16.9446 116.575L5.8457 117.656L16.9446 118.734L18.9852 135.79L21.0224 118.734L32.1214 117.656L21.0224 116.575Z" fill="white"/><path d="M208.838 96.5952H83.3463C80.8957 96.5961 78.5458 97.5684 76.8132 99.2983C75.0807 101.028 74.1074 103.374 74.1074 105.82V198.095C74.1074 200.541 75.0808 202.886 76.8134 204.616C78.5461 206.345 80.896 207.317 83.3463 207.317H208.838C211.289 207.317 213.639 206.345 215.372 204.616C217.105 202.887 218.079 200.541 218.08 198.095V105.82C218.08 103.373 217.107 101.027 215.373 99.2971C213.64 97.5671 211.289 96.5952 208.838 96.5952ZM95.641 153.678C93.7639 156.432 92.5103 160.7 91.553 163.923C90.7967 167.194 89.7986 171.533 90.0881 174.858C90.2687 176.97 89.4579 178.054 87.649 178.054C87.1028 178.044 86.5597 177.97 86.0308 177.833H85.9593H85.932L85.8332 177.81C82.9137 176.997 82.246 175.446 83.7551 173.233C85.6322 170.479 86.8859 166.211 87.8431 162.991C88.596 159.72 89.5976 155.378 89.308 152.056C89.0798 149.39 90.422 148.364 93.362 149.081L93.4335 149.101H93.4642L93.5629 149.125C96.4791 149.911 97.1468 151.468 95.641 153.678ZM100.039 114.548C98.4822 118.833 97.995 124.99 97.5965 129.639C97.4466 134.3 97.6407 133.579 98.7002 138.013C99.5451 141.57 98.2267 143.348 94.694 143.216H94.6088H94.5713H94.4555C90.9228 142.947 89.819 141.029 91.0659 137.595C92.6193 133.311 92.7317 134.059 93.1099 129.411C93.2632 124.749 93.4505 118.564 92.4013 114.13C91.5564 110.574 92.8748 108.795 96.4075 108.928H96.4961H96.5302H96.6494C100.179 109.196 101.286 111.118 100.039 114.548ZM157.046 117.061C151.03 116.963 146.52 115.585 143.498 114.178C143.438 115.263 143.3 116.343 143.082 117.408C142.772 118.955 142.52 120.631 142.309 122.389C146.447 123.833 150.793 124.599 155.176 124.657C161.87 124.657 166.34 121.862 167.055 124.378C167.771 126.895 163.924 128.901 154.825 128.755C149.225 128.663 144.946 127.466 141.931 126.164C141.614 129.938 141.447 133.919 141.345 137.724C144.459 138.248 150.09 138.806 155.912 137.445C163.43 135.691 165.355 134.351 166.265 135.63C167.788 137.765 164.994 139.679 156.522 141.509C149.558 143.012 144.305 142.08 141.27 141.067C141.205 144.467 141.171 147.575 141.103 150.111C143.392 150.876 147.525 151.849 151.623 150.74C155.503 149.693 158.491 148.279 159.523 149.69C161.059 151.784 158.327 153.532 152.325 154.79C147.164 155.864 143.185 154.45 140.974 153.202C140.882 154.691 140.749 155.742 140.541 156.211C140.486 156.337 140.429 156.46 140.367 156.575C140.306 156.691 140.221 156.868 140.146 157.007C140.217 158.734 140.381 163.066 140.391 167.796C141.996 168.567 143.785 168.877 145.556 168.689C147.327 168.501 149.011 167.823 150.417 166.732C156.31 162.373 164.745 162.366 166.623 170.03C169.167 180.414 154.083 184.178 144.602 184.127C135.121 184.076 152.498 176.925 146.809 175.304C143.665 174.406 141.515 174.964 140.221 175.674C140.013 179.571 139.584 182.838 138.78 184.042C138.713 184.097 138.628 184.128 138.541 184.128C138.454 184.128 138.37 184.097 138.303 184.042C137.495 182.838 137.066 179.571 136.858 175.674C135.564 174.994 133.414 174.406 130.273 175.304C124.581 176.925 141.958 184.076 132.477 184.127C122.997 184.178 107.912 180.414 110.457 170.03C112.334 162.366 120.769 162.373 126.666 166.732C128.071 167.822 129.754 168.5 131.525 168.688C133.296 168.876 135.084 168.567 136.688 167.796C136.688 163.07 136.862 158.741 136.933 157.01C136.858 156.871 136.783 156.728 136.712 156.575C136.64 156.422 136.593 156.337 136.538 156.211C136.33 155.742 136.197 154.691 136.105 153.202C133.895 154.443 129.916 155.864 124.754 154.79C118.752 153.539 116.02 151.791 117.556 149.69C118.578 148.279 121.579 149.69 125.46 150.74C129.548 151.849 133.687 150.876 135.976 150.111C135.908 147.578 135.874 144.457 135.809 141.067C132.774 142.087 127.521 143.012 120.557 141.509C112.085 139.679 109.292 137.769 110.814 135.63C111.724 134.351 113.649 135.691 121.167 137.445C126.989 138.806 132.62 138.248 135.731 137.724C135.632 133.933 135.465 129.955 135.148 126.164C132.144 127.466 127.855 128.663 122.254 128.755C113.155 128.901 109.309 126.905 110.024 124.378C110.739 121.852 115.209 124.657 121.903 124.657C126.286 124.6 130.63 123.834 134.767 122.389C134.559 120.635 134.303 118.955 133.997 117.408C133.778 116.343 133.639 115.263 133.581 114.178C130.559 115.585 126.052 116.963 120.033 117.061C110.934 117.207 108.137 116.123 108.665 113.552C109.108 111.386 111.574 112.964 119.682 112.964C125.695 112.964 131.105 111.294 134.239 110.084C134.988 108.557 136.368 107.741 138.395 107.683H138.681C140.725 107.741 142.088 108.554 142.844 110.084C145.975 111.294 151.388 112.964 157.397 112.964C165.505 112.964 167.958 111.386 168.414 113.552C168.942 116.126 166.146 117.211 157.046 117.065V117.061ZM178.379 138.01C179.438 133.59 179.633 134.297 179.483 129.635C179.105 124.987 178.597 118.829 177.044 114.545C175.793 111.111 176.9 109.19 180.43 108.924H180.549H180.586H180.672C184.204 108.792 185.523 110.57 184.678 114.127C183.618 118.547 183.816 124.746 183.969 129.407C184.347 134.055 184.46 133.307 186.013 137.592C187.264 141.026 186.156 142.944 182.627 143.212H182.508H182.47H182.385C178.852 143.352 177.534 141.573 178.379 138.01ZM191.232 177.793L191.137 177.816H191.106H191.035C188.095 178.53 186.753 177.504 186.981 174.841C187.267 171.516 186.269 167.177 185.516 163.906C184.572 160.683 183.315 156.426 181.428 153.661C179.922 151.451 180.59 149.897 183.509 149.088L183.608 149.064H183.639L183.71 149.044C186.65 148.326 187.993 149.353 187.764 152.019C187.478 155.341 188.476 159.683 189.229 162.954C190.173 166.174 191.426 170.434 193.317 173.195C193.772 173.784 194.044 174.494 194.097 175.236C194.094 176.398 193.147 177.248 191.232 177.793Z" fill="#347CB9"/><path d="M95.641 153.678C93.7639 156.432 92.5103 160.7 91.553 163.923C90.7967 167.194 89.7986 171.533 90.0881 174.858C90.2687 176.97 89.4579 178.054 87.649 178.054C87.1028 178.044 86.5597 177.97 86.0308 177.833H85.9593H85.932L85.8332 177.81C82.9137 176.997 82.246 175.446 83.7551 173.233C85.6322 170.479 86.8859 166.211 87.8431 162.991C88.596 159.72 89.5976 155.378 89.308 152.056C89.0798 149.39 90.422 148.364 93.362 149.081L93.4335 149.101H93.4642L93.5629 149.125C96.4791 149.911 97.1468 151.468 95.641 153.678ZM100.039 114.548C98.4822 118.833 97.995 124.99 97.5965 129.639C97.4466 134.3 97.6407 133.579 98.7002 138.013C99.5451 141.57 98.2267 143.348 94.694 143.216H94.6088H94.5713H94.4555C90.9228 142.947 89.819 141.029 91.0659 137.595C92.6193 133.311 92.7317 134.059 93.1099 129.411C93.2632 124.749 93.4505 118.564 92.4013 114.13C91.5564 110.574 92.8748 108.795 96.4075 108.928H96.4961H96.5302H96.6494C100.179 109.196 101.286 111.118 100.039 114.548ZM157.046 117.061C151.03 116.963 146.52 115.585 143.498 114.178C143.438 115.263 143.3 116.343 143.082 117.408C142.772 118.955 142.52 120.631 142.309 122.389C146.447 123.833 150.793 124.599 155.176 124.657C161.87 124.657 166.34 121.862 167.055 124.378C167.771 126.895 163.924 128.901 154.825 128.755C149.225 128.663 144.946 127.466 141.931 126.164C141.614 129.938 141.447 133.919 141.345 137.724C144.459 138.248 150.09 138.806 155.912 137.445C163.43 135.691 165.355 134.351 166.265 135.63C167.788 137.765 164.994 139.679 156.522 141.509C149.558 143.012 144.305 142.08 141.27 141.067C141.205 144.467 141.171 147.575 141.103 150.111C143.392 150.876 147.525 151.849 151.623 150.74C155.503 149.693 158.491 148.279 159.523 149.69C161.059 151.784 158.327 153.532 152.325 154.79C147.164 155.864 143.185 154.45 140.974 153.202C140.882 154.691 140.749 155.742 140.541 156.211C140.486 156.337 140.429 156.46 140.367 156.575C140.306 156.691 140.221 156.868 140.146 157.007C140.217 158.734 140.381 163.066 140.391 167.796C141.996 168.567 143.785 168.877 145.556 168.689C147.327 168.501 149.011 167.823 150.417 166.732C156.31 162.373 164.745 162.366 166.623 170.03C169.167 180.414 154.083 184.178 144.602 184.127C135.121 184.076 152.498 176.925 146.809 175.304C143.665 174.406 141.515 174.964 140.221 175.674C140.013 179.571 139.584 182.838 138.78 184.042C138.713 184.097 138.628 184.128 138.541 184.128C138.454 184.128 138.37 184.097 138.303 184.042C137.495 182.838 137.066 179.571 136.858 175.674C135.564 174.994 133.414 174.406 130.273 175.304C124.581 176.925 141.958 184.076 132.477 184.127C122.997 184.178 107.912 180.414 110.457 170.03C112.334 162.366 120.769 162.373 126.666 166.732C128.071 167.822 129.754 168.5 131.525 168.688C133.296 168.876 135.084 168.567 136.688 167.796C136.688 163.07 136.862 158.741 136.933 157.01C136.858 156.871 136.783 156.728 136.712 156.575C136.64 156.422 136.593 156.337 136.538 156.211C136.33 155.742 136.197 154.691 136.105 153.202C133.895 154.443 129.916 155.864 124.754 154.79C118.752 153.539 116.02 151.791 117.556 149.69C118.578 148.279 121.579 149.69 125.46 150.74C129.548 151.849 133.687 150.876 135.976 150.111C135.908 147.578 135.874 144.457 135.809 141.067C132.774 142.087 127.521 143.012 120.557 141.509C112.085 139.679 109.292 137.769 110.814 135.63C111.724 134.351 113.649 135.691 121.167 137.445C126.989 138.806 132.62 138.248 135.731 137.724C135.632 133.933 135.465 129.955 135.148 126.164C132.144 127.466 127.855 128.663 122.254 128.755C113.155 128.901 109.309 126.905 110.024 124.378C110.739 121.852 115.209 124.657 121.903 124.657C126.286 124.6 130.63 123.834 134.767 122.389C134.559 120.635 134.303 118.955 133.997 117.408C133.778 116.343 133.639 115.263 133.581 114.178C130.559 115.585 126.052 116.963 120.033 117.061C110.934 117.207 108.137 116.123 108.665 113.552C109.108 111.386 111.574 112.964 119.682 112.964C125.695 112.964 131.105 111.294 134.239 110.084C134.988 108.557 136.368 107.741 138.395 107.683H138.681C140.725 107.741 142.088 108.554 142.844 110.084C145.975 111.294 151.388 112.964 157.397 112.964C165.505 112.964 167.958 111.386 168.414 113.552C168.942 116.126 166.146 117.211 157.046 117.065V117.061ZM178.379 138.01C179.438 133.59 179.633 134.297 179.483 129.635C179.105 124.987 178.597 118.829 177.044 114.545C175.793 111.111 176.9 109.19 180.43 108.924H180.549H180.586H180.672C184.204 108.792 185.523 110.57 184.678 114.127C183.618 118.547 183.816 124.746 183.969 129.407C184.347 134.055 184.46 133.307 186.013 137.592C187.264 141.026 186.156 142.944 182.627 143.212H182.508H182.47H182.385C178.852 143.352 177.534 141.573 178.379 138.01ZM191.232 177.793L191.137 177.816H191.106H191.035C188.095 178.53 186.753 177.504 186.981 174.841C187.267 171.516 186.269 167.177 185.516 163.906C184.572 160.683 183.315 156.426 181.428 153.661C179.922 151.451 180.59 149.897 183.509 149.088L183.608 149.064H183.639L183.71 149.044C186.65 148.326 187.993 149.353 187.764 152.019C187.478 155.341 188.476 159.683 189.229 162.954C190.173 166.174 191.426 170.434 193.317 173.195C193.772 173.784 194.044 174.494 194.097 175.236C194.094 176.398 193.147 177.248 191.232 177.793Z" fill="white"/><path d="M177.974 202.251H76.2443C73.0914 202.242 70.0702 200.988 67.8414 198.763C65.6126 196.537 64.3579 193.52 64.3516 190.374V131.764H65.0329V190.374C65.0401 193.34 66.224 196.183 68.3256 198.281C70.4272 200.378 73.2755 201.56 76.2477 201.567H177.974V202.251Z" fill="#1A1D4E"/><path d="M200.836 202.25H191.09V201.57H200.836C203.807 201.56 206.654 200.377 208.753 198.279C210.853 196.181 212.035 193.339 212.041 190.373H212.722C212.716 193.519 211.462 196.534 209.235 198.76C207.008 200.985 203.988 202.24 200.836 202.25Z" fill="#1A1D4E"/><path d="M212.721 99.9276V180.591H212.039V99.9276C212.042 97.7628 211.412 95.6443 210.227 93.831C210.064 93.5794 209.886 93.3346 209.706 93.1C208.758 91.8718 207.566 90.853 206.204 90.1078C204.556 89.2081 202.706 88.7402 200.828 88.7477H190.652V88.0676H200.835C202.79 88.066 204.716 88.5485 206.439 89.4719C206.954 89.7461 207.447 90.0599 207.914 90.4104C208.96 91.1853 209.871 92.1261 210.612 93.1952C210.779 93.4332 210.932 93.6746 211.079 93.9228C212.155 95.7417 212.722 97.8154 212.721 99.9276Z" fill="#1A1D4E"/><path d="M179.553 88.071H96.4199V88.7511H179.553V88.071Z" fill="#1A1D4E"/><path d="M65.0329 123.481H64.3516V99.9446C64.3588 96.7978 65.6144 93.7818 67.8438 91.5567C70.0732 89.3315 73.0948 88.0782 76.2477 88.071H83.7185V88.7511H76.2443C73.2721 88.7583 70.4238 89.9399 68.3222 92.0375C66.2205 94.1352 65.0367 96.9781 65.0295 99.9446L65.0329 123.481Z" fill="#1A1D4E"/><path d="M100.534 198.038H79.1057C76.6625 198.035 74.3202 197.065 72.5926 195.341C70.8651 193.616 69.8933 191.279 69.8906 188.84V181.533H70.572V188.837C70.5747 191.095 71.4746 193.26 73.0744 194.856C74.6742 196.453 76.8432 197.352 79.1057 197.354H100.534V198.038Z" fill="#1A1D4E"/><path d="M197.978 198.038H114.723V197.358H197.978C200.241 197.355 202.41 196.457 204.01 194.86C205.609 193.263 206.509 191.098 206.512 188.84V126.069H207.193V188.84C207.191 191.279 206.219 193.617 204.491 195.341C202.764 197.065 200.422 198.035 197.978 198.038Z" fill="#1A1D4E"/><path d="M207.193 108.908H206.512V101.485C206.509 99.2268 205.609 97.0619 204.009 95.4651C202.409 93.8683 200.24 92.9701 197.978 92.9674H148.602V92.2874H197.978C200.421 92.2901 202.763 93.2599 204.491 94.9842C206.219 96.7085 207.19 99.0464 207.193 101.485V108.908Z" fill="#1A1D4E"/><path d="M70.5681 164.124H69.8867V101.485C69.8894 99.0464 70.8612 96.7085 72.5887 94.9842C74.3163 93.2599 76.6586 92.2901 79.1018 92.2874H140.391V92.9674H79.1018C76.8393 92.9701 74.6703 93.8683 73.0705 95.4651C71.4707 97.0619 70.5708 99.2268 70.5681 101.485V164.124Z" fill="#1A1D4E"/><path d="M146.095 69.9444L146.041 74.7251C136.281 73.433 133.852 68.9719 133.852 68.9719C135.146 69.0841 146.095 69.9444 146.095 69.9444Z" fill="#1A1D4E"/><path d="M126.489 48.1623C126.3 47.7853 126.031 47.4543 125.7 47.1928C125.369 46.9313 124.985 46.7457 124.574 46.6492C124.115 46.527 123.635 46.502 123.166 46.5758C122.697 46.6495 122.248 46.8205 121.849 47.0777L121.457 46.52C121.937 46.2063 122.478 45.997 123.044 45.9056C123.611 45.8142 124.19 45.8428 124.744 45.9896C125.251 46.1097 125.725 46.3399 126.133 46.6637C126.54 46.9876 126.871 47.3971 127.102 47.8631L126.489 48.1623Z" fill="#1A1D4E"/><path d="M138.711 42.314L138.102 42.008C138.868 40.4949 140.626 39.6279 142.581 39.7911C144.285 39.9373 145.559 40.8111 145.944 42.0624L145.293 42.263C144.997 41.294 143.91 40.5901 142.523 40.4711C141.253 40.3589 139.478 40.7635 138.711 42.314Z" fill="#1A1D4E"/><path d="M143.024 47.105C143.654 47.105 144.165 46.5951 144.165 45.966C144.165 45.3369 143.654 44.8269 143.024 44.8269C142.394 44.8269 141.883 45.3369 141.883 45.966C141.883 46.5951 142.394 47.105 143.024 47.105Z" fill="#1A1D4E"/><path d="M153.561 47.3397C154.191 47.3397 154.702 46.8297 154.702 46.2006C154.702 45.5715 154.191 45.0615 153.561 45.0615C152.931 45.0615 152.42 45.5715 152.42 46.2006C152.42 46.8297 152.931 47.3397 153.561 47.3397Z" fill="#1A1D4E"/><path d="M149.017 54.0482L148.996 53.3682C150.679 53.3138 152.028 52.3481 152.621 51.8449C148.931 49.7503 148.611 46.4895 149.497 44.276C150.41 41.991 152.852 40.0019 155.581 40.8111L155.387 41.464C153.128 40.7839 150.941 42.484 150.127 44.5242C149.275 46.6527 149.674 49.5939 153.353 51.464L153.759 51.668L153.449 52.0081C153.38 52.0829 151.582 53.9666 149.017 54.0482Z" fill="#1A1D4E"/><path d="M138.408 57.6083C140.367 60.2809 144.656 60.791 148.148 58.9038V53.7083C146.078 53.3021 143.932 53.722 142.169 54.878C140.408 55.9966 140.52 57.3839 138.408 57.6083Z" fill="#1A1D4E"/><path d="M157.585 57.6083C155.627 60.2809 151.338 60.791 147.846 58.9038V53.7083C149.915 53.3021 152.062 53.722 153.824 54.878C155.582 55.9966 155.473 57.3839 157.585 57.6083Z" fill="#1A1D4E"/><path d="M138.879 222.642H138.197V232.268H138.879V222.642Z" fill="#1A1D4E"/><path d="M138.879 237.416H138.197V240.472H138.879V237.416Z" fill="#1A1D4E"/><path d="M18.9832 164.464C17.1379 164.464 15.3271 163.964 13.7443 163.017C12.1614 162.07 10.8659 160.712 9.99605 159.088C9.12618 157.463 8.71461 155.634 8.80528 153.794C8.89594 151.954 9.48545 150.174 10.5108 148.643L11.0764 149.02C9.85774 150.849 9.31225 153.042 9.53289 155.228C9.75353 157.413 10.7266 159.454 12.2863 161.003C13.846 162.552 15.8957 163.513 18.086 163.723C20.2763 163.932 22.4716 163.377 24.2977 162.152L24.6792 162.716C22.9988 163.855 21.0144 164.464 18.9832 164.464Z" fill="#1A1D4E"/><path d="M28.5205 157.878L27.8835 157.636C28.6007 155.732 28.6861 153.648 28.127 151.692C27.568 149.736 26.3942 148.01 24.7785 146.77C23.1629 145.53 21.1908 144.841 19.153 144.804C17.1151 144.767 15.1193 145.384 13.4596 146.565L13.0645 146.011C14.843 144.746 16.9815 144.085 19.1649 144.125C21.3484 144.165 23.4613 144.903 25.1924 146.232C26.9235 147.561 28.1813 149.409 28.7805 151.505C29.3796 153.601 29.2885 155.834 28.5205 157.874V157.878Z" fill="#1A1D4E"/><path d="M18.984 158.785V158.105C19.8675 158.105 20.7235 157.799 21.4061 157.239C22.0888 156.679 22.5558 155.9 22.7277 155.035C22.8996 154.17 22.7657 153.273 22.3488 152.495C21.9319 151.718 21.2578 151.108 20.4414 150.771C19.625 150.434 18.7168 150.39 17.8714 150.647C17.0261 150.903 16.296 151.444 15.8055 152.178C15.315 152.911 15.0945 153.791 15.1814 154.669C15.2684 155.547 15.6576 156.367 16.2825 156.99L15.8158 157.469C15.0797 156.735 14.6216 155.768 14.5197 154.734C14.4177 153.699 14.6782 152.662 15.2567 151.798C15.8353 150.934 16.696 150.297 17.6924 149.995C18.6888 149.694 19.759 149.746 20.7209 150.144C21.6828 150.542 22.4767 151.26 22.9674 152.177C23.458 153.093 23.6152 154.151 23.4119 155.171C23.2087 156.19 22.6576 157.107 21.8527 157.766C21.0478 158.425 20.0388 158.786 18.9977 158.785H18.984Z" fill="#1A1D4E"/><path d="M188.139 59.4956H187.117V63.6099H188.139V59.4956Z" fill="#004F92"/><path d="M188.139 53.46H187.117V57.5742H188.139V53.46Z" fill="#004F92"/><path d="M186.667 58.0266H182.545V59.0467H186.667V58.0266Z" fill="#004F92"/><path d="M192.714 58.0266H188.592V59.0467H192.714V58.0266Z" fill="#004F92"/></svg>