<svg xmlns="http://www.w3.org/2000/svg" width="240" height="296" viewBox="0 0 240 296" fill="none"><path d="M60.7858 74.3228V105.918H29.1523" stroke="#0a2e54" stroke-width="12.1743" stroke-miterlimit="10" stroke-linecap="round" stroke-linejoin="round"/><path d="M52.6537 51.3584L6.37891 97.6163V289.793H185.46V51.3584H52.6537Z" stroke="#0a2e54" stroke-width="12.1743" stroke-miterlimit="10" stroke-linecap="round" stroke-linejoin="round"/><path d="M209.419 267.029V28.5947H76.6133" stroke="#0a2e54" stroke-width="12.1743" stroke-miterlimit="10" stroke-linecap="round" stroke-linejoin="round"/><path d="M233.603 244.64V6.20605H100.797" stroke="#0a2e54" stroke-width="12.1743" stroke-miterlimit="10" stroke-linecap="round" stroke-linejoin="round"/><path d="M45.9609 169.357H145.867" stroke="#0a2e54" stroke-width="12.1743" stroke-miterlimit="10" stroke-linecap="round" stroke-linejoin="round"/><path d="M45.9609 204.298H145.867" stroke="#0a2e54" stroke-width="12.1743" stroke-miterlimit="10" stroke-linecap="round" stroke-linejoin="round"/><path d="M45.9609 239.24H145.867" stroke="#0a2e54" stroke-width="12.1743" stroke-miterlimit="10" stroke-linecap="round" stroke-linejoin="round"/><path d="M75.949 106.25V124.154H58.0234" stroke="white" stroke-width="8.83829" stroke-miterlimit="10" stroke-linecap="round" stroke-linejoin="round"/><path d="M71.3396 93.2368L45.1172 119.45V228.35H146.596V93.2368H71.3396Z" stroke="white" stroke-width="8.83829" stroke-miterlimit="10" stroke-linecap="round" stroke-linejoin="round"/><path d="M160.175 215.45V80.3374H84.918" stroke="white" stroke-width="8.83829" stroke-miterlimit="10" stroke-linecap="round" stroke-linejoin="round"/><path d="M173.878 202.763V67.6504H98.6211" stroke="white" stroke-width="8.83829" stroke-miterlimit="10" stroke-linecap="round" stroke-linejoin="round"/><path d="M67.5469 160.103H124.16" stroke="white" stroke-width="8.83829" stroke-miterlimit="10" stroke-linecap="round" stroke-linejoin="round"/><path d="M67.5469 179.903H124.16" stroke="white" stroke-width="8.83829" stroke-miterlimit="10" stroke-linecap="round" stroke-linejoin="round"/><path d="M67.5469 199.703H124.16" stroke="white" stroke-width="8.83829" stroke-miterlimit="10" stroke-linecap="round" stroke-linejoin="round"/></svg>